<svg width="440" height="460" viewBox="0 0 440 460" fill="none" xmlns="http://www.w3.org/2000/svg">
<path opacity="0.4" d="M427.874 316.692L243.337 210.165L6.1552 347.089L0 350.879L189.017 460L432.557 319.397V313.996L427.874 316.692Z" fill="#D6D8E5"/>
<path d="M435.317 312.368L250.781 205.832L11.9148 343.73L7.23169 341.026V346.435L196.451 455.676L440 315.072V309.663L435.317 312.368Z" fill="#396A38"/>
<path d="M196.451 450.266L7.23169 341.025L250.781 200.422L440 309.663L196.451 450.266Z" fill="#529451"/>
<path d="M11.9608 343.73C12.5404 343.602 17.5363 340.51 17.5363 340.51V304.768L11.9608 301.548V343.73Z" fill="#27582C"/>
<path d="M196.561 444.323L16.9843 340.906V290.463L19.8641 288.098L196.561 389.16V444.323Z" fill="#E6E9EF"/>
<path d="M429.944 309.525L196.561 444.323V389.16L424.856 257.306L429.944 260.452V309.525Z" fill="#F4F6F9"/>
<path d="M435.317 264.776L250.781 158.24L11.9148 296.139L7.23169 293.434V298.844L196.451 408.085L440 267.481V262.081L435.317 264.776Z" fill="#396A38"/>
<path d="M196.451 402.675L7.23169 293.434L250.781 152.84L440 262.081L196.451 402.675Z" fill="#529451"/>
<path d="M7.23169 341.026V293.434L11.9148 296.139V348.947L7.23169 341.026Z" fill="#396A38"/>
<path d="M420.384 255.889L245.509 154.928L19.1465 285.605L14.7026 283.047V288.172L194.022 391.69L424.828 258.447V253.322L420.384 255.889Z" fill="#E8A30A"/>
<path d="M194.022 386.566L14.7026 283.047L245.509 149.804L424.828 253.322L194.022 386.566Z" fill="#F9CB07"/>
<path d="M19.1464 285.605C19.6893 285.485 24.4276 282.56 24.4276 282.56V248.685L19.1464 245.64V285.605Z" fill="#F9CB07"/>
<path d="M194.123 380.935L23.9492 282.927V235.133L26.6725 232.889L194.123 328.661V380.935Z" fill="#E6E9EF"/>
<path d="M415.296 253.193L194.123 380.935V328.661L410.475 203.707L415.296 206.687V253.193Z" fill="#F4F6F9"/>
<path d="M420.384 210.79L245.509 109.83L19.1465 240.506L14.7026 237.949V243.073L194.022 346.592L424.828 213.348V208.224L420.384 210.79Z" fill="#E8A30A"/>
<path d="M194.022 341.467L14.7026 237.949L245.509 104.705L424.828 208.223L194.022 341.467Z" fill="#F9CB07"/>
<path d="M14.7026 283.047V237.949L19.1465 240.506V290.554L14.7026 283.047Z" fill="#E8A30A"/>
<path d="M411.432 198.923L244.359 102.47L28.0986 227.323L23.8571 224.876V229.77L195.172 328.67L415.674 201.37V196.475L411.432 198.923Z" fill="#AB210D"/>
<path d="M195.172 323.776L23.8571 224.876L244.359 97.5752L415.674 196.475L195.172 323.776Z" fill="#FF582B"/>
<path d="M28.0986 227.323C28.6231 227.194 33.1498 224.407 33.1498 224.407V192.041L28.0986 189.134V227.323Z" fill="#FF582B"/>
<path d="M195.273 318.384L32.6897 224.765V179.096L35.2935 176.953L195.273 268.447V318.384Z" fill="#E6E9EF"/>
<path d="M406.565 196.355L195.273 318.384V268.447L401.965 149.067L406.565 151.919V196.355Z" fill="#F4F6F9"/>
<path d="M411.432 155.839L244.359 59.3862L28.0986 184.23L23.8571 181.783V186.677L195.172 285.587L415.674 158.286V153.392L411.432 155.839Z" fill="#AB210D"/>
<path d="M195.172 280.683L23.8571 181.783L244.359 54.4917L415.674 153.392L195.172 280.683Z" fill="#FF582B"/>
<path d="M23.8571 224.876V181.783L28.0986 184.23V232.042L23.8571 224.876Z" fill="#AB210D"/>
<path d="M419.97 152.067L244.073 50.5171L16.3954 181.957L11.924 179.382V184.543L192.292 288.668L424.442 154.643V149.491L419.97 152.067Z" fill="#001E2F"/>
<path d="M192.292 283.507L11.924 179.382L244.073 45.3652L424.442 149.491L192.292 283.507Z" fill="#004369"/>
<path d="M16.3954 181.958C16.9383 181.838 21.7042 178.894 21.7042 178.894V144.854L16.3954 141.781V181.958Z" fill="#004369"/>
<path d="M192.394 277.84L21.2258 179.271V131.183L23.9675 128.929L192.394 225.262V277.84Z" fill="#E6E9EF"/>
<path d="M414.855 149.362L192.394 277.84V225.262L410.006 99.5806L414.855 102.58V149.362Z" fill="#F4F6F9"/>
<path d="M419.97 106.701L244.073 5.15186L16.3954 136.601L11.924 134.025V139.177L192.292 243.303L424.442 109.277V104.125L419.97 106.701Z" fill="#001E2F"/>
<path d="M192.292 238.151L11.924 134.026L244.073 0L424.442 104.126L192.292 238.151Z" fill="#004369"/>
<path d="M11.924 179.381V134.025L16.3954 136.601V186.935L11.924 179.381Z" fill="#001E2F"/>
<path opacity="0.1" d="M325.204 137.678L179.816 53.7466L194.804 45.0986L340.192 129.03L325.204 137.678Z" fill="black"/>
<path opacity="0.1" d="M277.784 137.384L180.332 81.1258L187.83 76.8018L285.283 133.06L277.784 137.384Z" fill="black"/>
<path opacity="0.1" d="M261.407 148.148L163.955 91.8806L171.444 87.5566L268.897 143.815L261.407 148.148Z" fill="black"/>
<path opacity="0.1" d="M227.798 147.265L162.344 109.48L169.843 105.156L235.287 142.941L227.798 147.265Z" fill="black"/>
<path d="M93.57 103.96C94.4901 102.405 101.915 101.393 104.335 107.64C105.255 110.004 105.117 116.058 105.88 119.867C106.644 123.676 108.466 125.819 109.119 128.91C109.772 132.002 108.705 137.19 101.271 138.11C93.8369 139.03 88.1141 136.418 86.3568 134.044C84.5995 131.67 84.5167 126.629 86.3568 123.924C88.1969 121.219 89.5678 119.02 89.5218 115.497L93.57 103.96Z" fill="#3A2C6D"/>
<path d="M98.4464 102.865C98.4464 102.865 92.926 101.264 89.5218 104.264C88.4143 105.288 87.6078 106.596 87.1895 108.045C86.7711 109.495 86.7568 111.031 87.1481 112.488C87.5989 114.246 88.5005 116.638 89.9082 116.766C91.3159 116.895 98.4464 102.865 98.4464 102.865Z" fill="#3A2C6D"/>
<path d="M100.563 117.999C100.563 117.999 100.204 124.191 100.314 124.641C100.425 125.092 102.743 125.561 103.387 126.077C104.031 126.592 100.029 132.894 97.9863 133.823C95.9438 134.752 89.623 132.379 89.1814 129.223C88.7765 126.334 91.0215 124.08 91.8496 123.298C92.4276 123.245 93.0084 123.23 93.5885 123.252L93.7725 120.253C96.5419 119.379 100.563 117.999 100.563 117.999Z" fill="#FFCEA9"/>
<path d="M82.3637 151.018C80.6157 153.441 78.5377 155.609 76.1901 157.458C75.5369 158.028 75.2057 158.635 74.0924 159.896C72.987 161.173 71.5562 162.127 69.9521 162.656C68.5536 163.015 67.9648 162.923 67.7256 162.656C67.4864 162.389 67.606 161.993 68.2132 161.736C69.2233 161.441 70.1625 160.943 70.9734 160.273C70.9734 160.273 69.6761 160.88 68.8573 161.193C68.1154 161.452 67.3413 161.606 66.5571 161.653C65.7935 161.653 64.9838 160.733 65.591 160.494C66.1983 160.255 66.7595 160.209 67.9648 159.767C68.6154 159.541 69.234 159.232 69.8049 158.847C68.9687 159.092 68.1129 159.264 67.2471 159.362C66.5303 159.484 65.7936 159.401 65.1218 159.123C64.763 158.967 64.4502 158.313 65.2598 158.102C66.3106 157.995 67.3433 157.753 68.3328 157.384C69.2529 156.961 69.8693 156.51 69.6577 156.464C69.4461 156.418 68.9125 156.667 67.9648 156.593C67.0171 156.519 66.1247 155.921 66.1247 155.415C66.1247 154.909 66.3271 155.185 67.2564 155.112C68.2391 154.869 69.2386 154.7 70.2465 154.606C71.2402 154.645 72.2338 154.527 73.1907 154.256C74.2028 153.953 76.4661 151.239 78.1959 148.736C80.0865 145.961 81.5821 142.935 82.6397 139.748C83.6794 136.325 84.9215 129.913 85.8047 127.687C86.688 125.46 88.2153 124.439 89.669 124.393C91.3803 124.338 92.1072 126.583 91.6563 128.524C90.7823 131.854 86.9916 144.937 82.3637 151.018Z" fill="#FFCEA9"/>
<path d="M101.409 125.249C103.148 125.516 105.089 126.445 105.411 127.392C105.733 128.506 106.414 133.74 104.914 137.724C103.415 141.708 101.703 148.884 100.839 150.604C96.3642 151.246 91.8037 150.371 87.8841 148.12C87.8841 148.12 87.5253 141.192 87.4977 138.92C81.9037 134.035 86.688 128.018 91.4263 123.335C91.9959 123.289 92.5681 123.289 93.1376 123.335C93.1376 123.335 88.9054 128.34 91.8404 131.183C98.1428 129.205 99.3665 126.371 101.409 125.249Z" fill="#F4F4F4"/>
<path d="M89.0066 110.336C89.6322 106.361 92.5028 103.362 96.5971 103.601C97.6339 103.661 98.6488 103.925 99.5837 104.377C100.519 104.829 101.355 105.462 102.046 106.237C102.736 107.013 103.267 107.917 103.607 108.899C103.948 109.88 104.092 110.918 104.031 111.955C103.96 113.162 103.61 114.336 103.008 115.385C102.406 116.434 101.569 117.329 100.563 117.999C100.422 118.602 100.209 119.186 99.9277 119.738C98.474 121.431 94.6189 122.498 93.3493 122.498C92.2452 122.498 91.2975 121.486 90.2671 119.738C88.1233 116.242 88.6662 112.304 89.0066 110.336Z" fill="#FFCEA9"/>
<path d="M97.8667 103.675C100.747 104.236 103.111 105.045 103.893 107.87C104.427 109.811 105.126 113.519 104.454 115.083L104.05 116.205L100.562 117.999C100.562 117.999 98.934 116.647 99.4492 112.681C99.4298 112.142 99.2576 111.618 98.9524 111.173C98.7366 110.799 98.5755 110.396 98.474 109.977C98.0642 108.904 97.2569 108.031 96.2198 107.539C93.6252 106.076 89.7794 107.336 89.301 107.861C90.03 106.285 91.2798 105.008 92.8399 104.246C94.4001 103.483 96.1753 103.282 97.8667 103.675Z" fill="#3A2C6D"/>
<path d="M82.0325 198.821C80.5788 199.999 78.3523 199.18 78.2143 199.29C76.733 200.772 74.534 202.05 72.8779 203.366C71.9578 204.074 70.5594 205.031 70.817 206.402C71.2678 208.858 75.1965 208.095 76.6777 207.322C78.159 206.549 79.3643 205.326 80.772 204.461C81.7657 203.835 82.7501 203.541 82.9066 202.253C82.9986 201.48 82.2993 198.784 82.0325 198.821Z" fill="#38226D"/>
<path d="M82.8882 201.774C82.6949 202.98 81.7289 203.311 80.7352 203.927C79.3091 204.847 78.0579 206.089 76.5766 206.844C75.0953 207.598 71.7922 208.224 70.8354 206.466C71.3598 208.831 75.2149 208.095 76.6778 207.386C78.1407 206.678 79.3643 205.39 80.772 204.525C81.7657 203.9 82.7502 203.605 82.9066 202.317C82.9255 202.136 82.9193 201.954 82.8882 201.774Z" fill="#9C73FF"/>
<path d="M74.9481 194.838C73.614 195.923 71.599 195.316 71.507 195.417C69.9535 196.736 68.3254 197.965 66.6307 199.097C65.8027 199.75 64.5054 200.624 64.7354 201.857C65.1586 204.102 68.7561 203.412 70.1085 202.722C71.461 202.032 72.5743 200.882 73.8532 200.1C74.7732 199.53 75.6933 199.235 75.8129 198.085C75.9049 197.441 75.1781 194.81 74.9481 194.838Z" fill="#38226D"/>
<path d="M75.8037 197.671C75.6197 198.775 74.7364 199.088 73.8256 199.649C72.5191 200.459 71.369 201.627 70.0165 202.317C68.664 203.007 65.637 203.578 64.7538 201.977C65.2322 204.139 68.7652 203.458 70.1085 202.777C71.4518 202.097 72.5743 200.937 73.8532 200.155C74.7732 199.585 75.6933 199.291 75.8129 198.141C75.8277 197.984 75.8246 197.827 75.8037 197.671Z" fill="#9C73FF"/>
<path d="M95.0974 152.131C91.1526 152.652 87.1406 152.073 83.5046 150.457C83.569 151.681 83.6334 152.775 83.6334 152.775C78.9135 156.115 69.4461 161.727 68.8297 165.6C69.4461 177.845 71.3046 195.325 71.8382 195.574C73.3195 196.282 74.35 196.172 75.0493 195.463C75.0493 195.463 78.021 185.095 77.1562 169.878C77.1562 169.878 93.7173 162.573 94.7477 158.571C95.2292 156.959 95.3825 155.267 95.1986 153.594C95.1894 153.107 95.1526 152.619 95.0974 152.131Z" fill="#FFCEA9"/>
<path d="M100.581 150.54C97.3055 152.067 94.3061 152.26 90.6075 151.874C90.6075 153.511 90.8467 156.593 90.8467 156.593C86.1268 159.924 76.6594 165.545 76.0338 169.418C76.6594 181.654 77.8003 199.382 78.3431 199.603C78.9781 199.875 79.6735 199.976 80.3597 199.895C81.0459 199.815 81.6989 199.555 82.2534 199.143C82.2534 199.143 85.2343 188.904 84.3695 173.696C84.3695 173.411 98.52 166.446 100.314 164.597C102.108 162.748 102.458 159.997 102.403 157.412C102.268 155.021 101.648 152.683 100.581 150.54Z" fill="#FFCEA9"/>
<path d="M104.05 153.134C104.05 153.134 109.275 162.398 100.563 167.164C91.3619 172.196 85.7496 173.374 85.7496 173.374L84.3695 173.696C84.8044 176.892 84.8044 180.132 84.3695 183.328C84.3695 183.328 77.8095 185.619 69.4369 178.25L66.6767 169.317L66.3547 166.943C66.1945 166.137 66.2376 165.304 66.4801 164.518C66.7227 163.733 67.157 163.02 67.744 162.444C69.7589 160.604 76.1257 156.004 80.082 153.29C84.0383 150.576 87.1573 148.12 87.1573 148.12L87.8565 147.476C87.8565 147.476 92.5488 151.211 101.133 149.96C102.265 150.859 103.25 151.93 104.05 153.134Z" fill="#8C50FF"/>
<path d="M98.8604 166.888C99.658 166.166 100.503 165.5 101.391 164.892C102.328 164.41 103.187 163.79 103.939 163.052C104.74 162.251 105.926 158.884 106.543 155.6C107.114 151.936 107.052 148.202 106.359 144.56C105.274 140.199 103.808 135.941 101.979 131.836C100.811 129.38 101.473 127.88 102.531 126.794C103.783 125.516 105.08 125.543 106.561 128.975C108.649 133.78 110.192 138.804 111.162 143.952C111.759 147.69 111.709 151.502 111.014 155.222C110.394 158.484 109.384 161.66 108.006 164.68C107.629 165.6 107.564 166.318 107.031 168.093C106.523 169.87 105.595 171.498 104.326 172.84C103.194 173.898 102.614 174.101 102.301 173.963C101.989 173.825 101.933 173.383 102.393 172.84C103.186 172.039 103.83 171.105 104.298 170.08C104.298 170.08 103.378 171.313 102.715 171.994C102.15 172.609 101.506 173.147 100.802 173.595C100.112 174.009 99.0168 173.521 99.4677 172.96C99.9185 172.399 100.388 172.095 101.308 171.065C101.798 170.517 102.224 169.915 102.577 169.271C101.92 169.924 101.209 170.521 100.452 171.056C99.8687 171.525 99.1633 171.819 98.4188 171.902C98.0324 171.902 97.4987 171.451 98.152 170.835C99.0776 170.195 99.9238 169.448 100.673 168.608C101.372 167.688 101.731 166.98 101.51 166.998C101.289 167.017 100.912 167.56 100.01 167.974C99.1088 168.388 98.0784 168.25 97.8944 167.753C97.7104 167.256 98.0416 167.44 98.8604 166.888Z" fill="#FFCEA9"/>
<path d="M108.852 133.602C108.852 133.602 105.678 136.418 102.145 135.847L100.774 129.941C100.774 129.941 99.854 126.84 102.504 125.663C105.154 124.485 107.702 127.567 108.852 133.602Z" fill="#EDEDED"/>
<path d="M91.4263 123.28C91.4263 123.28 87.9945 122.24 84.3419 129.849L85.7128 130.667C85.7128 130.667 89.301 125.239 91.4263 123.28Z" fill="#EDEDED"/>
<path d="M68.204 156.869L79.7323 150.218C79.8327 150.159 79.9471 150.127 80.0635 150.127C80.18 150.127 80.2944 150.159 80.3948 150.218L100.636 161.892L88.7765 168.746L68.204 156.869Z" fill="#F4F4F4"/>
<path d="M89.0525 166.106L89.9726 166.621C90.0462 166.621 90.037 166.732 89.9726 166.778L89.1353 167.265C89.0912 167.288 89.0423 167.3 88.9927 167.3C88.9431 167.3 88.8942 167.288 88.8501 167.265L87.93 166.759C87.8564 166.713 87.8656 166.649 87.93 166.594L88.7765 166.115C88.8182 166.091 88.8652 166.078 88.9134 166.076C88.9615 166.075 89.0093 166.085 89.0525 166.106Z" fill="#3A2C6D"/>
<path d="M87.8105 165.388L88.7305 165.894C88.7949 165.94 88.7857 166.014 88.7305 166.06L87.8933 166.548C87.8485 166.568 87.7999 166.579 87.7506 166.579C87.7014 166.579 87.6528 166.568 87.608 166.548L86.688 166.042C86.6144 165.996 86.6236 165.922 86.688 165.876L87.5252 165.388C87.5694 165.366 87.6183 165.354 87.6678 165.354C87.7174 165.354 87.7663 165.366 87.8105 165.388Z" fill="#3A2C6D"/>
<path d="M86.5408 164.68L87.4608 165.186C87.5344 165.232 87.5252 165.297 87.4608 165.352L86.6236 165.83C86.5794 165.853 86.5306 165.865 86.481 165.865C86.4314 165.865 86.3825 165.853 86.3384 165.83L85.4183 165.315C85.3539 165.315 85.3539 165.205 85.4183 165.159L86.2556 164.671C86.3 164.648 86.3495 164.637 86.3994 164.639C86.4492 164.64 86.4979 164.655 86.5408 164.68Z" fill="#3A2C6D"/>
<path d="M85.3079 163.944L86.228 164.459C86.3016 164.459 86.2924 164.57 86.228 164.616L85.3907 165.103C85.3466 165.126 85.2977 165.138 85.2481 165.138C85.1985 165.138 85.1496 165.126 85.1055 165.103L84.1854 164.597C84.1118 164.597 84.121 164.487 84.1854 164.432L85.0319 163.953C85.0736 163.929 85.1206 163.916 85.1687 163.914C85.2169 163.913 85.2646 163.923 85.3079 163.944Z" fill="#3A2C6D"/>
<path d="M84.0658 163.227L84.9859 163.733C85.0503 163.779 85.0411 163.852 84.9859 163.898L84.1486 164.386C84.1039 164.407 84.0553 164.417 84.006 164.417C83.9568 164.417 83.9081 164.407 83.8634 164.386L82.9434 163.88C82.8697 163.88 82.8789 163.76 82.9434 163.714L83.7806 163.227C83.8247 163.204 83.8736 163.192 83.9232 163.192C83.9728 163.192 84.0217 163.204 84.0658 163.227Z" fill="#3A2C6D"/>
<path d="M82.8053 162.509L83.7254 163.015C83.799 163.015 83.7898 163.125 83.7254 163.18L82.8789 163.659C82.8364 163.681 82.789 163.693 82.7409 163.693C82.6928 163.693 82.6454 163.681 82.6029 163.659L81.6829 163.144C81.6092 163.144 81.6184 163.033 81.6829 162.987L82.5201 162.5C82.565 162.479 82.6142 162.468 82.6638 162.47C82.7134 162.471 82.7619 162.485 82.8053 162.509Z" fill="#3A2C6D"/>
<path d="M81.5633 161.782L82.4833 162.298C82.5569 162.298 82.5477 162.408 82.4833 162.454L81.6461 162.942C81.6019 162.964 81.553 162.976 81.5035 162.976C81.4539 162.976 81.405 162.964 81.3608 162.942L80.4408 162.436C80.3672 162.436 80.3764 162.325 80.4408 162.27L81.2872 161.792C81.329 161.768 81.376 161.754 81.4241 161.753C81.4722 161.751 81.52 161.761 81.5633 161.782Z" fill="#3A2C6D"/>
<path d="M80.3212 161.065L81.2413 161.571C81.3149 161.571 81.3057 161.69 81.2413 161.736L80.404 162.224C80.3593 162.245 80.3106 162.255 80.2614 162.255C80.2122 162.255 80.1635 162.245 80.1188 162.224L79.1987 161.718C79.1343 161.718 79.1435 161.598 79.1987 161.552L80.036 161.065C80.0801 161.042 80.129 161.03 80.1786 161.03C80.2282 161.03 80.2771 161.042 80.3212 161.065Z" fill="#3A2C6D"/>
<path d="M79.0699 160.347L79.99 160.853C80.0636 160.853 80.0544 160.963 79.99 161.018L79.1435 161.497C79.101 161.519 79.0536 161.531 79.0055 161.531C78.9574 161.531 78.91 161.519 78.8675 161.497L77.9474 160.982C77.8738 160.982 77.883 160.871 77.9474 160.825L78.7847 160.338C78.8296 160.316 78.8788 160.306 78.9284 160.308C78.978 160.309 79.0265 160.323 79.0699 160.347Z" fill="#3A2C6D"/>
<path d="M77.8186 159.62L78.7387 160.135C78.8123 160.135 78.8031 160.246 78.7387 160.292L77.8922 160.779C77.8497 160.802 77.8023 160.814 77.7542 160.814C77.7061 160.814 77.6587 160.802 77.6162 160.779L76.6962 160.273C76.6226 160.227 76.6318 160.163 76.6962 160.108L77.5426 159.629C77.5844 159.605 77.6314 159.592 77.6795 159.59C77.7276 159.589 77.7754 159.599 77.8186 159.62Z" fill="#3A2C6D"/>
<path d="M76.5766 158.903L77.4966 159.409C77.5702 159.409 77.561 159.528 77.4966 159.574L76.6594 160.062C76.6147 160.082 76.566 160.093 76.5168 160.093C76.4675 160.093 76.4189 160.082 76.3742 160.062L75.4541 159.556C75.3897 159.51 75.3989 159.436 75.4541 159.39L76.2913 158.903C76.3355 158.88 76.3844 158.868 76.434 158.868C76.4835 158.868 76.5324 158.88 76.5766 158.903Z" fill="#3A2C6D"/>
<path d="M75.3253 158.185L76.2453 158.691C76.319 158.691 76.3098 158.802 76.2453 158.857L75.3989 159.335C75.3564 159.358 75.309 159.37 75.2609 159.37C75.2128 159.37 75.1654 159.358 75.1229 159.335L74.2028 158.82C74.1292 158.82 74.1384 158.71 74.2028 158.664L75.0401 158.176C75.0849 158.155 75.1342 158.145 75.1838 158.146C75.2334 158.148 75.2819 158.161 75.3253 158.185Z" fill="#3A2C6D"/>
<path d="M74.074 157.458L74.9941 157.973C75.0677 157.973 75.0585 158.084 74.9941 158.13L74.1476 158.617C74.1051 158.64 74.0577 158.652 74.0096 158.652C73.9615 158.652 73.9141 158.64 73.8716 158.617L72.9515 158.111C72.8779 158.065 72.8871 158.001 72.9515 157.946L73.798 157.467C73.8397 157.443 73.8867 157.43 73.9348 157.428C73.983 157.427 74.0308 157.437 74.074 157.458Z" fill="#3A2C6D"/>
<path d="M72.2246 156.4L73.7059 157.256C73.7795 157.302 73.7703 157.375 73.7059 157.421L72.8687 157.909C72.824 157.93 72.7753 157.94 72.7261 157.94C72.6768 157.94 72.6282 157.93 72.5835 157.909L71.1022 157.053C71.0286 157.007 71.0378 156.943 71.1022 156.888L71.9486 156.4C71.9917 156.38 72.0389 156.369 72.0866 156.369C72.1344 156.369 72.1815 156.38 72.2246 156.4Z" fill="#3A2C6D"/>
<path d="M88.4177 164.34L89.3378 164.855C89.4114 164.855 89.4022 164.966 89.3378 165.012L88.5005 165.499C88.4564 165.522 88.4075 165.533 88.3579 165.533C88.3083 165.533 88.2594 165.522 88.2153 165.499L87.2952 164.993C87.2308 164.993 87.24 164.874 87.2952 164.828L88.1325 164.34C88.1772 164.319 88.2258 164.309 88.2751 164.309C88.3243 164.309 88.373 164.319 88.4177 164.34Z" fill="#3A2C6D"/>
<path d="M87.1664 163.622L88.0865 164.128C88.1509 164.128 88.1417 164.239 88.0865 164.294L87.2492 164.772C87.2051 164.795 87.1562 164.807 87.1066 164.807C87.057 164.807 87.0081 164.795 86.964 164.772L86.0439 164.257C85.9703 164.257 85.9795 164.147 86.0439 164.101L86.8812 163.613C86.9261 163.592 86.9753 163.582 87.0249 163.583C87.0745 163.585 87.123 163.598 87.1664 163.622Z" fill="#3A2C6D"/>
<path d="M85.9151 162.896L86.8352 163.411C86.8996 163.411 86.8904 163.521 86.8352 163.567L85.9979 164.055C85.9538 164.077 85.9049 164.089 85.8553 164.089C85.8057 164.089 85.7569 164.077 85.7127 164.055L84.7927 163.549C84.7191 163.503 84.7283 163.438 84.7927 163.383L85.6299 162.896C85.6746 162.875 85.7233 162.864 85.7725 162.864C85.8218 162.864 85.8704 162.875 85.9151 162.896Z" fill="#3A2C6D"/>
<path d="M84.6455 162.178L85.5655 162.684C85.6391 162.684 85.6299 162.794 85.5655 162.85L84.7191 163.337C84.676 163.358 84.6288 163.368 84.5811 163.368C84.5333 163.368 84.4862 163.358 84.4431 163.337L83.523 162.822C83.4494 162.822 83.4586 162.712 83.523 162.666L84.3603 162.178C84.4044 162.155 84.4533 162.144 84.5029 162.144C84.5525 162.144 84.6013 162.155 84.6455 162.178Z" fill="#3A2C6D"/>
<path d="M83.4218 161.46L84.3418 161.966C84.4154 161.966 84.4062 162.086 84.3418 162.132L83.4954 162.619C83.4523 162.64 83.4051 162.65 83.3574 162.65C83.3096 162.65 83.2625 162.64 83.2194 162.619L82.2993 162.113C82.2257 162.067 82.2349 161.994 82.2993 161.948L83.1458 161.46C83.1883 161.438 83.2357 161.426 83.2838 161.426C83.3319 161.426 83.3793 161.438 83.4218 161.46Z" fill="#3A2C6D"/>
<path d="M82.1705 160.733L83.0906 161.248C83.1642 161.248 83.155 161.359 83.0906 161.405L82.2441 161.892C82.2016 161.915 82.1542 161.927 82.1061 161.927C82.058 161.927 82.0106 161.915 81.9681 161.892L81.048 161.386C80.9744 161.386 80.9836 161.276 81.048 161.23L81.8945 160.742C81.9369 160.72 81.9837 160.708 82.0315 160.707C82.0792 160.705 82.1267 160.714 82.1705 160.733Z" fill="#3A2C6D"/>
<path d="M80.9652 160.016L81.8853 160.522C81.9589 160.568 81.9497 160.641 81.8853 160.687L81.0388 161.175C80.9963 161.198 80.949 161.209 80.9008 161.209C80.8527 161.209 80.8053 161.198 80.7628 161.175L79.8428 160.669C79.7692 160.623 79.7784 160.549 79.8428 160.503L80.6892 160.016C80.7317 159.993 80.7791 159.981 80.8272 159.981C80.8753 159.981 80.9227 159.993 80.9652 160.016Z" fill="#3A2C6D"/>
<path d="M79.6679 159.298L80.588 159.804C80.6616 159.804 80.6524 159.915 80.588 159.961L79.7507 160.448C79.7059 160.468 79.6573 160.479 79.6081 160.479C79.559 160.479 79.5104 160.468 79.4655 160.448L78.5455 159.933C78.4719 159.933 78.4811 159.823 78.5455 159.777L79.3919 159.289C79.4352 159.268 79.4829 159.258 79.5311 159.259C79.5792 159.261 79.6262 159.274 79.6679 159.298Z" fill="#3A2C6D"/>
<path d="M78.4167 158.572L79.3367 159.078C79.4103 159.124 79.4011 159.197 79.3367 159.243L78.4995 159.731C78.4553 159.753 78.4064 159.765 78.3568 159.765C78.3073 159.765 78.2584 159.753 78.2142 159.731L77.2942 159.225C77.2206 159.179 77.2298 159.105 77.2942 159.059L78.1406 158.572C78.1838 158.551 78.2309 158.541 78.2786 158.541C78.3264 158.541 78.3735 158.551 78.4167 158.572Z" fill="#3A2C6D"/>
<path d="M77.1746 157.854L78.0947 158.36C78.1683 158.36 78.1591 158.47 78.0947 158.525L77.2574 159.004C77.2133 159.026 77.1644 159.038 77.1148 159.038C77.0652 159.038 77.0163 159.026 76.9722 159.004L76.0521 158.488C75.9877 158.488 75.9969 158.378 76.0521 158.332L76.8894 157.844C76.9342 157.823 76.9835 157.813 77.0331 157.815C77.0827 157.816 77.1312 157.83 77.1746 157.854Z" fill="#3A2C6D"/>
<path d="M75.9233 157.127L76.8434 157.633C76.917 157.633 76.9078 157.753 76.8434 157.799L76.0061 158.286C75.962 158.309 75.9131 158.321 75.8635 158.321C75.8139 158.321 75.765 158.309 75.7209 158.286L74.8008 157.78C74.7364 157.78 74.7456 157.661 74.8008 157.615L75.6381 157.127C75.6828 157.106 75.7315 157.096 75.7807 157.096C75.8299 157.096 75.8786 157.106 75.9233 157.127Z" fill="#3A2C6D"/>
<path d="M74.672 156.4L75.5921 156.906C75.6565 156.906 75.6473 157.016 75.5921 157.072L74.7548 157.55C74.7107 157.573 74.6618 157.584 74.6122 157.584C74.5626 157.584 74.5137 157.573 74.4696 157.55L73.5496 157.035C73.4759 157.035 73.4851 156.924 73.5496 156.878L74.3868 156.391C74.4317 156.37 74.4809 156.359 74.5305 156.361C74.5801 156.363 74.6286 156.376 74.672 156.4Z" fill="#3A2C6D"/>
<path d="M89.669 165.067L91.1503 165.922C91.2239 165.922 91.2147 166.033 91.1503 166.079L90.3038 166.566C90.2613 166.589 90.2139 166.601 90.1658 166.601C90.1177 166.601 90.0703 166.589 90.0278 166.566L88.5373 165.711C88.4729 165.711 88.4821 165.6 88.5373 165.554L89.3745 165.067C89.4198 165.042 89.4704 165.03 89.5218 165.03C89.5731 165.03 89.6237 165.042 89.669 165.067Z" fill="#3A2C6D"/>
<path d="M72.2891 156.345L73.2091 156.86C73.2491 156.88 73.2932 156.891 73.338 156.891C73.3827 156.891 73.4268 156.88 73.4668 156.86L74.3868 156.354C74.4604 156.308 74.4604 156.244 74.3868 156.198H74.3132C74.2991 156.192 74.287 156.183 74.2784 156.171C74.2698 156.158 74.2652 156.144 74.2652 156.129C74.2652 156.114 74.2698 156.099 74.2784 156.087C74.287 156.074 74.2991 156.065 74.3132 156.06L75.2333 155.517C75.3069 155.471 75.3069 155.406 75.2333 155.36L74.672 155.038C74.6299 155.02 74.5845 155.011 74.5386 155.011C74.4928 155.011 74.4474 155.02 74.4052 155.038L73.4852 155.544L73.3012 155.655L73.1723 155.728L73.0343 155.802L72.2799 156.244C72.2681 156.258 72.2625 156.277 72.2642 156.296C72.2659 156.315 72.2748 156.332 72.2891 156.345Z" fill="#3A2C6D"/>
<path d="M93.8921 163.309L94.8121 163.824C94.8857 163.824 94.8765 163.935 94.8121 163.981L93.9657 164.469C93.9232 164.491 93.8758 164.503 93.8277 164.503C93.7795 164.503 93.7321 164.491 93.6896 164.469L92.7696 163.962C92.696 163.962 92.7052 163.852 92.7696 163.797L93.6068 163.318C93.6502 163.294 93.6987 163.281 93.7483 163.279C93.7979 163.278 93.8472 163.288 93.8921 163.309Z" fill="#3A2C6D"/>
<path d="M92.65 162.592L93.5701 163.098C93.6437 163.144 93.6345 163.217 93.5701 163.263L92.7328 163.751C92.6887 163.774 92.6398 163.785 92.5902 163.785C92.5406 163.785 92.4917 163.774 92.4476 163.751L91.5275 163.245C91.4631 163.245 91.4723 163.125 91.5275 163.079L92.3648 162.592C92.4095 162.571 92.4581 162.561 92.5074 162.561C92.5566 162.561 92.6053 162.571 92.65 162.592Z" fill="#3A2C6D"/>
<path d="M91.3987 161.92L92.3188 162.426C92.3924 162.472 92.3832 162.546 92.3188 162.592L91.4723 163.08C91.4298 163.102 91.3824 163.114 91.3343 163.114C91.2862 163.114 91.2388 163.102 91.1963 163.08L90.2762 162.574C90.2026 162.574 90.2118 162.454 90.2762 162.408L91.0859 161.92C91.1337 161.894 91.1876 161.88 91.2423 161.88C91.297 161.88 91.3509 161.894 91.3987 161.92Z" fill="#3A2C6D"/>
<path d="M80.7996 155.756L81.7197 156.262C81.7933 156.308 81.7841 156.382 81.7197 156.428L80.8732 156.915C80.8301 156.936 80.7829 156.946 80.7352 156.946C80.6874 156.946 80.6403 156.936 80.5972 156.915L79.6771 156.409C79.6035 156.363 79.6127 156.29 79.6771 156.244L80.5236 155.756C80.5661 155.733 80.6135 155.722 80.6616 155.722C80.7097 155.722 80.7571 155.733 80.7996 155.756Z" fill="#3A2C6D"/>
<path d="M79.5575 155.039L80.4776 155.545C80.542 155.591 80.542 155.655 80.4776 155.71L79.6403 156.189C79.5978 156.211 79.5505 156.223 79.5023 156.223C79.4542 156.223 79.4068 156.211 79.3643 156.189L78.4443 155.674C78.3707 155.674 78.3799 155.563 78.4443 155.517L79.2815 155.03C79.3252 155.01 79.3727 155.001 79.4206 155.002C79.4685 155.004 79.5153 155.016 79.5575 155.039Z" fill="#3A2C6D"/>
<path d="M78.3155 154.321L79.1895 154.827C79.2631 154.827 79.2539 154.938 79.1895 154.993L78.3523 155.471C78.3081 155.494 78.2592 155.506 78.2096 155.506C78.16 155.506 78.1112 155.494 78.067 155.471L77.147 154.956C77.0826 154.956 77.0918 154.846 77.147 154.8L77.9842 154.312C78.0348 154.282 78.0926 154.268 78.1512 154.269C78.2097 154.271 78.2666 154.289 78.3155 154.321Z" fill="#3A2C6D"/>
<path d="M77.0642 153.64L77.9842 154.146C78.0578 154.146 78.0486 154.257 77.9842 154.303L77.1378 154.79C77.0946 154.811 77.0475 154.821 76.9998 154.821C76.952 154.821 76.9049 154.811 76.8618 154.79L75.9417 154.275C75.8681 154.275 75.8773 154.165 75.9417 154.119L76.7882 153.631C76.8314 153.61 76.8792 153.6 76.9273 153.601C76.9754 153.603 77.0224 153.616 77.0642 153.64Z" fill="#3A2C6D"/>
<path d="M89.8346 161L91.0399 161.69C91.1135 161.736 91.1043 161.81 91.0399 161.856L90.1934 162.343C90.1503 162.364 90.1032 162.374 90.0554 162.374C90.0077 162.374 89.9606 162.364 89.9174 162.343L88.7121 161.653C88.6385 161.607 88.6477 161.534 88.7121 161.488L89.5586 161C89.6011 160.978 89.6485 160.966 89.6966 160.966C89.7447 160.966 89.7921 160.978 89.8346 161Z" fill="#3A2C6D"/>
<path d="M82.0417 156.474L83.247 157.164C83.3206 157.164 83.3114 157.283 83.247 157.329L82.4005 157.817C82.358 157.84 82.3107 157.851 82.2625 157.851C82.2144 157.851 82.167 157.84 82.1245 157.817L80.9192 157.127C80.8456 157.081 80.8548 157.007 80.9192 156.961L81.7657 156.474C81.8082 156.451 81.8556 156.439 81.9037 156.439C81.9518 156.439 81.9992 156.451 82.0417 156.474Z" fill="#3A2C6D"/>
<path d="M83.615 157.375L89.4758 160.761C89.5494 160.761 89.5402 160.871 89.4758 160.927L88.6385 161.405C88.596 161.428 88.5487 161.439 88.5005 161.439C88.4524 161.439 88.405 161.428 88.3625 161.405L82.4926 158.019C82.4281 157.973 82.4373 157.9 82.4926 157.854L83.3298 157.366C83.3752 157.347 83.4242 157.338 83.4734 157.34C83.5227 157.341 83.571 157.353 83.615 157.375Z" fill="#3A2C6D"/>
<path d="M89.2458 163.447L90.1658 163.953C90.2394 163.953 90.2302 164.073 90.1658 164.119L89.3194 164.607C89.2762 164.627 89.2291 164.638 89.1814 164.638C89.1336 164.638 89.0865 164.627 89.0433 164.607L88.1233 164.101C88.0497 164.101 88.0589 163.981 88.1233 163.935L88.9697 163.447C89.0122 163.425 89.0596 163.413 89.1077 163.413C89.1559 163.413 89.2033 163.425 89.2458 163.447Z" fill="#3A2C6D"/>
<path d="M88.0405 162.73L88.9606 163.236C89.025 163.236 89.0158 163.346 88.9606 163.401L88.1233 163.88C88.0792 163.902 88.0303 163.914 87.9807 163.914C87.9311 163.914 87.8822 163.902 87.8381 163.88L86.918 163.364C86.8444 163.364 86.8536 163.254 86.918 163.208L87.7553 162.72C87.8001 162.699 87.8494 162.689 87.899 162.691C87.9486 162.692 87.9971 162.706 88.0405 162.73Z" fill="#3A2C6D"/>
<path d="M86.7892 162.003L87.7093 162.518C87.7829 162.518 87.7737 162.629 87.7093 162.675L86.8628 163.162C86.8203 163.185 86.7729 163.197 86.7248 163.197C86.6767 163.197 86.6293 163.185 86.5868 163.162L85.6667 162.656C85.5931 162.656 85.6023 162.546 85.6667 162.5L86.5132 162.012C86.5549 161.988 86.6019 161.975 86.6501 161.973C86.6982 161.972 86.746 161.982 86.7892 162.003Z" fill="#3A2C6D"/>
<path d="M85.5655 161.285L86.4856 161.8C86.5592 161.8 86.55 161.911 86.4856 161.957L85.6483 162.444C85.6042 162.467 85.5553 162.479 85.5057 162.479C85.4561 162.479 85.4072 162.467 85.3631 162.444L84.4431 161.938C84.3786 161.892 84.3878 161.819 84.4431 161.773L85.2803 161.285C85.325 161.265 85.3737 161.254 85.4229 161.254C85.4722 161.254 85.5208 161.265 85.5655 161.285Z" fill="#3A2C6D"/>
<path d="M84.2959 160.568L85.2159 161.074C85.2895 161.074 85.2803 161.194 85.2159 161.24L84.3695 161.727C84.3263 161.748 84.2792 161.758 84.2315 161.758C84.1837 161.758 84.1366 161.748 84.0935 161.727L83.1734 161.221C83.0998 161.175 83.109 161.102 83.1734 161.056L84.0198 160.568C84.0624 160.545 84.1097 160.534 84.1579 160.534C84.206 160.534 84.2534 160.545 84.2959 160.568Z" fill="#3A2C6D"/>
<path d="M83.0537 159.85L83.9738 160.356C84.0474 160.356 84.0382 160.467 83.9738 160.522L83.1365 161C83.0924 161.023 83.0435 161.035 82.9939 161.035C82.9443 161.035 82.8955 161.023 82.8513 161L81.9313 160.485C81.8669 160.485 81.8761 160.375 81.9313 160.329L82.7685 159.841C82.8134 159.82 82.8626 159.81 82.9122 159.811C82.9618 159.813 83.0103 159.826 83.0537 159.85Z" fill="#3A2C6D"/>
<path d="M81.8025 159.16L82.7225 159.676C82.7961 159.676 82.7869 159.786 82.7225 159.832L81.8761 160.32C81.8336 160.342 81.7862 160.354 81.738 160.354C81.6899 160.354 81.6425 160.342 81.6 160.32L80.68 159.814C80.6064 159.814 80.6156 159.703 80.68 159.657L81.5264 159.17C81.5689 159.148 81.6157 159.136 81.6634 159.134C81.7111 159.132 81.7586 159.141 81.8025 159.16Z" fill="#3A2C6D"/>
<path d="M80.5604 158.406L81.4805 158.921C81.5541 158.921 81.5449 159.031 81.4805 159.077L80.6432 159.565C80.5991 159.588 80.5502 159.599 80.5006 159.599C80.451 159.599 80.4021 159.588 80.358 159.565L79.4379 159.059C79.3735 159.013 79.3827 158.939 79.4379 158.893L80.2752 158.406C80.3199 158.385 80.3685 158.375 80.4178 158.375C80.467 158.375 80.5157 158.385 80.5604 158.406Z" fill="#3A2C6D"/>
<path d="M79.3091 157.688L80.2292 158.194C80.3028 158.24 80.2936 158.314 80.2292 158.36L79.3827 158.847C79.3396 158.868 79.2924 158.878 79.2447 158.878C79.197 158.878 79.1498 158.868 79.1067 158.847L78.1866 158.341C78.113 158.295 78.1222 158.222 78.1866 158.176L79.0331 157.688C79.0756 157.666 79.123 157.654 79.1711 157.654C79.2192 157.654 79.2666 157.666 79.3091 157.688Z" fill="#3A2C6D"/>
<path d="M78.0579 156.971L78.9779 157.477C79.0515 157.523 79.0423 157.587 78.9779 157.642L78.1407 158.121C78.0965 158.143 78.0476 158.155 77.9981 158.155C77.9485 158.155 77.8996 158.143 77.8554 158.121L76.9354 157.606C76.871 157.606 76.871 157.495 76.9354 157.449L77.7726 156.962C77.8171 156.939 77.8665 156.928 77.9164 156.929C77.9663 156.931 78.015 156.945 78.0579 156.971Z" fill="#3A2C6D"/>
<path d="M76.8158 156.244L77.7358 156.759C77.8094 156.759 77.8002 156.869 77.7358 156.915L76.8894 157.403C76.8469 157.426 76.7995 157.437 76.7514 157.437C76.7032 157.437 76.6559 157.426 76.6134 157.403L75.6933 156.897C75.6197 156.897 75.6289 156.787 75.6933 156.741L76.5305 156.253C76.5748 156.231 76.623 156.22 76.6722 156.218C76.7213 156.216 76.7702 156.225 76.8158 156.244Z" fill="#3A2C6D"/>
<path d="M75.5645 155.526L76.4845 156.041C76.5581 156.041 76.5489 156.152 76.4845 156.198L75.6473 156.685C75.6031 156.708 75.5543 156.72 75.5047 156.72C75.4551 156.72 75.4062 156.708 75.3621 156.685L74.442 156.179C74.3684 156.133 74.3776 156.069 74.442 156.014L75.2885 155.526C75.3316 155.506 75.3787 155.495 75.4265 155.495C75.4742 155.495 75.5213 155.506 75.5645 155.526Z" fill="#3A2C6D"/>
<path d="M90.5338 164.165L92.374 165.223C92.4476 165.223 92.4384 165.333 92.374 165.379L91.5275 165.867C91.485 165.89 91.4376 165.901 91.3895 165.901C91.3414 165.901 91.294 165.89 91.2515 165.867L89.4114 164.818C89.3378 164.818 89.347 164.699 89.4114 164.653L90.2486 164.165C90.2933 164.144 90.342 164.134 90.3912 164.134C90.4405 164.134 90.4891 164.144 90.5338 164.165Z" fill="#3A2C6D"/>
<path d="M91.0859 163.107L92.006 163.613C92.0796 163.613 92.0704 163.733 92.006 163.779L91.1595 164.266C91.1164 164.287 91.0692 164.297 91.0215 164.297C90.9738 164.297 90.9266 164.287 90.8835 164.266L89.9634 163.76C89.8898 163.76 89.899 163.641 89.9634 163.595L90.8007 163.107C90.8448 163.085 90.8937 163.073 90.9433 163.073C90.9929 163.073 91.0418 163.085 91.0859 163.107Z" fill="#3A2C6D"/>
<path d="M89.8622 162.389L90.7823 162.895C90.8559 162.895 90.8467 163.006 90.7823 163.061L89.945 163.539C89.9009 163.562 89.852 163.574 89.8024 163.574C89.7528 163.574 89.7039 163.562 89.6598 163.539L88.7397 163.024C88.6753 163.024 88.6845 162.914 88.7397 162.868L89.577 162.38C89.6214 162.357 89.6709 162.346 89.7208 162.348C89.7707 162.349 89.8194 162.364 89.8622 162.389Z" fill="#3A2C6D"/>
<path d="M88.6201 161.663L89.5401 162.178C89.6138 162.178 89.6046 162.288 89.5401 162.334L88.6937 162.822C88.6512 162.845 88.6038 162.856 88.5557 162.856C88.5076 162.856 88.4602 162.845 88.4177 162.822L87.4976 162.316C87.424 162.316 87.4332 162.206 87.4976 162.15L88.3349 161.672C88.3783 161.648 88.4268 161.635 88.4764 161.633C88.526 161.631 88.5752 161.642 88.6201 161.663Z" fill="#3A2C6D"/>
<path d="M87.4056 160.945L88.3257 161.451C88.3993 161.451 88.3901 161.571 88.3257 161.617L87.4884 162.104C87.4443 162.127 87.3954 162.139 87.3458 162.139C87.2962 162.139 87.2474 162.127 87.2032 162.104L86.2832 161.598C86.2188 161.598 86.2188 161.479 86.2832 161.433L87.1204 160.945C87.1648 160.923 87.2136 160.912 87.263 160.912C87.3125 160.912 87.3613 160.923 87.4056 160.945Z" fill="#3A2C6D"/>
<path d="M86.1267 160.227L87.0468 160.733C87.1204 160.733 87.1112 160.853 87.0468 160.899L86.2003 161.386C86.1572 161.407 86.1101 161.418 86.0623 161.418C86.0146 161.418 85.9675 161.407 85.9243 161.386L85.0043 160.88C84.9307 160.88 84.9399 160.761 85.0043 160.715L85.8415 160.227C85.8857 160.205 85.9345 160.193 85.9841 160.193C86.0337 160.193 86.0826 160.205 86.1267 160.227Z" fill="#3A2C6D"/>
<path d="M84.8755 159.51L85.7956 160.016C85.8692 160.016 85.86 160.126 85.7956 160.181L84.9583 160.66C84.9142 160.682 84.8653 160.694 84.8157 160.694C84.7661 160.694 84.7172 160.682 84.6731 160.66L83.753 160.145C83.6886 160.145 83.6886 160.034 83.753 159.988L84.5903 159.501C84.6347 159.478 84.6842 159.467 84.7341 159.468C84.784 159.47 84.8326 159.484 84.8755 159.51Z" fill="#3A2C6D"/>
<path d="M83.6334 158.783L84.5535 159.298C84.6271 159.298 84.6179 159.408 84.5535 159.454L83.707 159.942C83.6645 159.965 83.6171 159.976 83.569 159.976C83.5209 159.976 83.4735 159.965 83.431 159.942L82.5109 159.436C82.4373 159.436 82.4465 159.326 82.5109 159.28L83.3482 158.792C83.3924 158.771 83.4407 158.759 83.4898 158.757C83.5389 158.755 83.5879 158.764 83.6334 158.783Z" fill="#3A2C6D"/>
<path d="M82.3821 158.066L83.3022 158.581C83.3758 158.581 83.3666 158.691 83.3022 158.737L82.4649 159.225C82.4208 159.247 82.3719 159.259 82.3223 159.259C82.2727 159.259 82.2239 159.247 82.1797 159.225L81.2597 158.719C81.1953 158.673 81.1953 158.599 81.2597 158.553L82.0969 158.066C82.1413 158.044 82.1901 158.032 82.2395 158.032C82.289 158.032 82.3378 158.044 82.3821 158.066Z" fill="#3A2C6D"/>
<path d="M81.14 157.32L82.0601 157.826C82.1337 157.826 82.1245 157.946 82.0601 157.992L81.2136 158.479C81.1711 158.502 81.1238 158.514 81.0756 158.514C81.0275 158.514 80.9801 158.502 80.9376 158.479L80.0176 157.973C79.944 157.927 79.9532 157.854 80.0176 157.808L80.8548 157.32C80.899 157.297 80.9478 157.286 80.9974 157.286C81.047 157.286 81.0959 157.297 81.14 157.32Z" fill="#3A2C6D"/>
<path d="M79.8887 156.63L80.8088 157.136C80.8824 157.136 80.8732 157.246 80.8088 157.302L79.9715 157.789C79.9268 157.81 79.8782 157.821 79.8289 157.821C79.7797 157.821 79.731 157.81 79.6863 157.789L78.7663 157.274C78.7019 157.274 78.7019 157.164 78.7663 157.118L79.6035 156.63C79.6472 156.606 79.6962 156.593 79.7461 156.593C79.796 156.593 79.8451 156.606 79.8887 156.63Z" fill="#3A2C6D"/>
<path d="M78.6467 155.913L79.5668 156.419C79.6404 156.419 79.6312 156.529 79.5668 156.575L78.7203 157.063C78.677 157.083 78.6299 157.093 78.5823 157.093C78.5347 157.093 78.4876 157.083 78.4443 157.063L77.5242 156.548C77.4506 156.548 77.4598 156.437 77.5242 156.391L78.3615 155.904C78.4063 155.882 78.4556 155.872 78.5052 155.874C78.5548 155.875 78.6033 155.889 78.6467 155.913Z" fill="#3A2C6D"/>
<path d="M75.8589 154.294L78.2787 155.701C78.3523 155.701 78.3431 155.812 78.2787 155.858L77.4414 156.345C77.3973 156.368 77.3484 156.38 77.2988 156.38C77.2492 156.38 77.2003 156.368 77.1562 156.345L74.7364 154.947C74.6628 154.947 74.672 154.836 74.7364 154.79L75.5737 154.303C75.6179 154.281 75.6662 154.269 75.7153 154.268C75.7645 154.266 75.8134 154.275 75.8589 154.294Z" fill="#3A2C6D"/>
<path d="M92.3648 163.824L93.5608 164.524C93.6344 164.524 93.6252 164.634 93.5608 164.68L92.7236 165.168C92.6794 165.19 92.6306 165.202 92.581 165.202C92.5314 165.202 92.4825 165.19 92.4384 165.168L91.2331 164.478C91.1687 164.478 91.1779 164.358 91.2331 164.312L92.0703 163.824C92.1163 163.802 92.1666 163.791 92.2176 163.791C92.2685 163.791 92.3188 163.802 92.3648 163.824Z" fill="#3A2C6D"/>
<path d="M70.9734 157.118L88.6845 167.339C88.7489 167.339 88.7397 167.45 88.6845 167.505L88.2705 167.744C88.2264 167.767 88.1775 167.778 88.1279 167.778C88.0783 167.778 88.0294 167.767 87.9853 167.744L70.2557 157.532C70.1821 157.532 70.1913 157.422 70.2557 157.366L70.679 157.127C70.7229 157.1 70.7732 157.085 70.8249 157.083C70.8766 157.082 70.9278 157.094 70.9734 157.118Z" fill="#3A2C6D"/>
<path d="M91.9231 157.79L91.8035 157.854L88.7581 159.611L83.339 156.483L83.2194 156.419L86.3844 154.597L91.9231 157.79Z" fill="#BFBFBF"/>
<path d="M91.8035 157.854L88.7581 159.611L83.339 156.483L86.3844 154.726L91.8035 157.854Z" fill="#E5E5E5"/>
<path d="M100.618 161.92V162.196C100.611 162.384 100.558 162.567 100.461 162.728C100.364 162.889 100.228 163.023 100.066 163.116L89.3101 169.326C89.1423 169.423 88.9519 169.474 88.7581 169.474C88.5643 169.474 88.3739 169.423 88.2061 169.326L68.756 158.102C68.5886 158.003 68.4498 157.861 68.3531 157.692C68.2564 157.523 68.205 157.331 68.204 157.136V156.86L88.7581 168.728L100.618 161.92Z" fill="#E5E5E5"/>
<path d="M88.7581 168.738V169.483C88.5641 169.485 88.3731 169.434 88.2061 169.336L68.756 158.112C68.5886 158.012 68.4498 157.87 68.3531 157.701C68.2564 157.532 68.205 157.341 68.204 157.146V156.87L88.7581 168.738Z" fill="#E5E5E5"/>
<path d="M88.4453 168.903C88.2612 168.976 88.0629 169.006 87.8654 168.992C87.6679 168.978 87.4761 168.919 87.3044 168.82L67.9832 157.642C67.8155 157.546 67.6714 157.413 67.5616 157.254C67.4517 157.095 67.3789 156.913 67.3483 156.722L65.223 144.081C65.2185 144.011 65.2185 143.94 65.223 143.87C65.2294 143.523 65.3715 143.193 65.6186 142.95L85.6759 154.56C85.8036 154.628 85.9134 154.725 85.9965 154.843C86.0796 154.962 86.1337 155.098 86.1544 155.241L88.4453 168.903Z" fill="#F4F4F4"/>
<path d="M88.7581 168.747L88.6201 168.82C88.5646 168.853 88.5061 168.881 88.4453 168.903L86.1543 155.232C86.1337 155.089 86.0796 154.953 85.9965 154.834C85.9134 154.716 85.8036 154.619 85.6759 154.551L65.5634 142.931C65.64 142.849 65.7303 142.781 65.8302 142.729L85.9887 154.367C86.112 154.439 86.218 154.538 86.2991 154.655C86.3802 154.773 86.4344 154.907 86.458 155.048L88.7581 168.747Z" fill="#E5E5E5"/>
<path d="M354.683 117.098C356.279 119.936 358.213 122.572 360.442 124.945C361.068 125.663 365.862 123.832 364.859 123.317C363.856 122.802 360.718 118.432 359.145 115.515C357.829 112.036 356.711 108.485 355.796 104.88C354.803 101.31 353.956 96.0757 353.238 93.6101C353.052 92.6983 352.605 91.8601 351.952 91.1972C351.299 90.5342 350.467 90.0749 349.558 89.8749C347.838 89.4793 346.724 89.9485 347.037 92.0369C347.598 95.6801 350.46 109.912 354.683 117.098Z" fill="#FFCEA9"/>
<path d="M351.941 172.813C353.422 174.018 355.621 172.914 355.723 173.024C357.478 174.656 359.321 176.192 361.243 177.624C362.163 178.351 363.617 179.326 363.35 180.725C362.881 183.236 358.878 182.464 357.37 181.7C355.861 180.936 354.609 179.667 353.192 178.774C352.171 178.14 351.168 177.808 351.003 176.52C350.874 175.72 351.674 172.785 351.941 172.813Z" fill="#38226D"/>
<path d="M350.993 175.968C351.187 177.201 352.18 177.541 353.192 178.167C354.646 179.087 355.953 180.375 357.434 181.139C358.915 181.902 362.31 182.546 363.295 180.761C362.761 183.172 358.823 182.417 357.333 181.681C355.842 180.945 354.572 179.648 353.156 178.756C352.134 178.121 351.131 177.79 350.966 176.502C350.958 176.324 350.967 176.145 350.993 175.968Z" fill="#9C73FF"/>
<path d="M367.002 164.137C368.484 165.342 371.088 164.027 371.198 164.137C372.743 165.702 374.377 167.177 376.093 168.553C377.013 169.28 378.466 170.255 378.2 171.653C377.74 174.165 373.728 173.392 372.219 172.629C370.71 171.865 369.459 170.595 368.042 169.703C367.021 169.068 366.018 168.737 365.852 167.449C365.76 166.676 366.736 164.109 367.002 164.137Z" fill="#38226D"/>
<path d="M365.898 167.109C366.101 168.342 367.085 168.682 368.097 169.308C369.551 170.228 370.858 171.516 372.348 172.279C373.839 173.043 377.224 173.696 378.209 171.902C377.675 174.322 373.737 173.558 372.238 172.822C370.738 172.086 369.477 170.789 368.07 169.896C367.048 169.262 366.046 168.976 365.88 167.652C365.873 167.471 365.879 167.289 365.898 167.109Z" fill="#9C73FF"/>
<path d="M332.077 125.212C330.439 135.488 335.003 139.334 340.946 141.514C345.206 143.087 351.315 145.507 351.315 145.507C351.315 145.507 351.233 147.761 351.177 152.867C351.177 157.329 351.73 173.604 351.73 173.604C351.73 173.604 354.186 174.883 356.275 173.604C356.275 173.604 358.667 161.129 359.173 155.507C359.863 147.871 361.013 142.885 360.645 141.238C360.304 139.794 351.969 135.718 349.319 133.501L366.8 139.352C366.452 141.246 366.283 143.168 366.294 145.093C366.45 151.147 366.791 164.257 366.791 164.257C366.791 164.257 369.183 165.986 371.226 164.257C371.226 164.257 375.623 138.322 375.09 134.881C374.584 131.624 359.191 124.963 356.477 122.673C356.004 122.287 355.454 122.005 354.864 121.847C354.274 121.688 353.658 121.656 353.054 121.753L332.077 125.212Z" fill="#8C50FF"/>
<path d="M373.976 129.49L362.236 122.719C362.134 122.66 362.019 122.629 361.901 122.629C361.783 122.629 361.667 122.66 361.565 122.719L340.965 134.605L353.045 141.579L373.976 129.49Z" fill="#F4F4F4"/>
<path d="M352.502 139.086L351.582 139.601C351.509 139.601 351.518 139.72 351.582 139.766L352.429 140.263C352.473 140.286 352.522 140.298 352.571 140.298C352.621 140.298 352.67 140.286 352.714 140.263L353.634 139.748C353.698 139.748 353.689 139.628 353.634 139.582L352.778 139.086C352.736 139.063 352.688 139.051 352.64 139.051C352.592 139.051 352.545 139.063 352.502 139.086Z" fill="#3A2C6D"/>
<path d="M353.763 138.359L352.843 138.874C352.769 138.874 352.778 138.985 352.843 139.04L353.698 139.527C353.742 139.55 353.791 139.562 353.841 139.562C353.891 139.562 353.939 139.55 353.984 139.527L354.904 139.012C354.977 139.012 354.968 138.902 354.904 138.847L354.048 138.359C354.004 138.336 353.955 138.325 353.905 138.325C353.856 138.325 353.807 138.336 353.763 138.359Z" fill="#3A2C6D"/>
<path d="M355.042 137.614L354.122 138.129C354.048 138.175 354.057 138.249 354.122 138.295L354.977 138.791C355.021 138.814 355.07 138.826 355.12 138.826C355.169 138.826 355.218 138.814 355.262 138.791L356.183 138.276C356.256 138.23 356.247 138.157 356.183 138.111L355.327 137.614C355.282 137.593 355.234 137.583 355.184 137.583C355.135 137.583 355.086 137.593 355.042 137.614Z" fill="#3A2C6D"/>
<path d="M356.302 136.896L355.382 137.411C355.309 137.411 355.318 137.522 355.382 137.577L356.229 138.065C356.273 138.087 356.322 138.099 356.371 138.099C356.421 138.099 356.47 138.087 356.514 138.065L357.434 137.549C357.507 137.549 357.498 137.439 357.434 137.384L356.587 136.896C356.543 136.874 356.494 136.862 356.445 136.862C356.395 136.862 356.346 136.874 356.302 136.896Z" fill="#3A2C6D"/>
<path d="M357.563 136.16L356.643 136.676C356.569 136.722 356.578 136.795 356.643 136.841L357.498 137.338C357.542 137.361 357.591 137.372 357.641 137.372C357.69 137.372 357.739 137.361 357.783 137.338L358.704 136.823C358.777 136.823 358.768 136.703 358.704 136.657L357.848 136.16C357.804 136.138 357.755 136.126 357.705 136.126C357.656 136.126 357.607 136.138 357.563 136.16Z" fill="#3A2C6D"/>
<path d="M358.823 135.433L357.903 135.949C357.829 135.949 357.839 136.059 357.903 136.114L358.759 136.602C358.803 136.624 358.852 136.636 358.901 136.636C358.951 136.636 359 136.624 359.044 136.602L359.964 136.087C360.038 136.087 360.028 135.976 359.964 135.921L359.108 135.433C359.064 135.411 359.015 135.399 358.966 135.399C358.916 135.399 358.867 135.411 358.823 135.433Z" fill="#3A2C6D"/>
<path d="M360.102 134.697L359.182 135.213C359.108 135.259 359.118 135.332 359.182 135.378L360.028 135.875C360.073 135.898 360.121 135.909 360.171 135.909C360.221 135.909 360.269 135.898 360.314 135.875L361.234 135.36C361.307 135.36 361.298 135.24 361.234 135.194L360.387 134.697C360.342 134.677 360.294 134.666 360.245 134.666C360.195 134.666 360.147 134.677 360.102 134.697Z" fill="#3A2C6D"/>
<path d="M361.362 133.97L360.442 134.486C360.369 134.486 360.378 134.596 360.442 134.651L361.298 135.139C361.342 135.161 361.391 135.173 361.441 135.173C361.49 135.173 361.539 135.161 361.583 135.139L362.503 134.624C362.577 134.624 362.568 134.513 362.503 134.458L361.648 133.97C361.604 133.948 361.555 133.936 361.505 133.936C361.456 133.936 361.407 133.948 361.362 133.97Z" fill="#3A2C6D"/>
<path d="M362.632 133.234L361.712 133.75C361.638 133.796 361.648 133.869 361.712 133.915L362.568 134.412C362.612 134.435 362.661 134.446 362.71 134.446C362.76 134.446 362.809 134.435 362.853 134.412L363.773 133.897C363.847 133.851 363.837 133.777 363.773 133.731L362.917 133.234C362.873 133.214 362.824 133.203 362.775 133.203C362.726 133.203 362.677 133.214 362.632 133.234Z" fill="#3A2C6D"/>
<path d="M363.902 132.48L362.982 132.995C362.908 132.995 362.917 133.106 362.982 133.161L363.828 133.649C363.872 133.671 363.921 133.683 363.971 133.683C364.02 133.683 364.069 133.671 364.113 133.649L365.033 133.124C365.107 133.124 365.098 133.014 365.033 132.959L364.187 132.471C364.142 132.45 364.093 132.439 364.043 132.441C363.994 132.443 363.945 132.456 363.902 132.48Z" fill="#3A2C6D"/>
<path d="M365.162 131.772L364.242 132.287C364.169 132.333 364.178 132.407 364.242 132.453L365.098 132.95C365.142 132.972 365.191 132.984 365.24 132.984C365.29 132.984 365.339 132.972 365.383 132.95L366.303 132.434C366.377 132.388 366.368 132.315 366.303 132.269L365.448 131.772C365.403 131.751 365.354 131.741 365.305 131.741C365.256 131.741 365.207 131.751 365.162 131.772Z" fill="#3A2C6D"/>
<path d="M366.432 131.045L365.512 131.56C365.438 131.56 365.447 131.671 365.512 131.726L366.368 132.213C366.412 132.236 366.461 132.248 366.51 132.248C366.56 132.248 366.609 132.236 366.653 132.213L367.573 131.689C367.646 131.689 367.637 131.579 367.573 131.533L366.717 131.036C366.672 131.015 366.623 131.004 366.573 131.006C366.524 131.008 366.475 131.021 366.432 131.045Z" fill="#3A2C6D"/>
<path d="M367.702 130.309L366.782 130.824C366.717 130.87 366.726 130.944 366.782 130.99L367.637 131.487C367.68 131.509 367.727 131.521 367.775 131.521C367.823 131.521 367.871 131.509 367.913 131.487L368.833 130.971C368.907 130.925 368.898 130.852 368.833 130.806L367.978 130.309C367.934 130.29 367.887 130.28 367.84 130.28C367.792 130.28 367.745 130.29 367.702 130.309Z" fill="#3A2C6D"/>
<path d="M369.579 129.223L368.07 130.097C367.996 130.097 368.005 130.208 368.07 130.263L368.925 130.751C368.969 130.773 369.018 130.785 369.068 130.785C369.118 130.785 369.166 130.773 369.211 130.751L370.719 129.877C370.793 129.877 370.784 129.766 370.719 129.711L369.873 129.223C369.828 129.199 369.777 129.187 369.726 129.187C369.674 129.187 369.624 129.199 369.579 129.223Z" fill="#3A2C6D"/>
<path d="M353.146 137.292L352.226 137.807C352.153 137.853 352.162 137.927 352.226 137.973L353.082 138.469C353.126 138.492 353.175 138.504 353.225 138.504C353.274 138.504 353.323 138.492 353.367 138.469L354.287 137.954C354.361 137.908 354.352 137.835 354.287 137.789L353.432 137.292C353.387 137.269 353.339 137.257 353.289 137.257C353.239 137.257 353.19 137.269 353.146 137.292Z" fill="#3A2C6D"/>
<path d="M354.416 136.556L353.496 137.08C353.422 137.08 353.431 137.191 353.496 137.237L354.352 137.733C354.396 137.756 354.445 137.768 354.494 137.768C354.544 137.768 354.593 137.756 354.637 137.733L355.557 137.218C355.63 137.218 355.621 137.108 355.557 137.053L354.701 136.565C354.658 136.541 354.609 136.528 354.56 136.526C354.51 136.524 354.461 136.535 354.416 136.556Z" fill="#3A2C6D"/>
<path d="M355.686 135.829L354.766 136.344C354.692 136.39 354.701 136.464 354.766 136.51L355.621 136.998C355.665 137.02 355.714 137.032 355.764 137.032C355.814 137.032 355.862 137.02 355.907 136.998L356.827 136.482C356.9 136.436 356.891 136.363 356.827 136.317L355.971 135.82C355.926 135.799 355.877 135.789 355.827 135.79C355.778 135.792 355.729 135.805 355.686 135.829Z" fill="#3A2C6D"/>
<path d="M356.983 135.093L356.063 135.608C355.989 135.608 355.999 135.728 356.063 135.774L356.919 136.27C356.963 136.293 357.012 136.305 357.061 136.305C357.111 136.305 357.16 136.293 357.204 136.27L358.124 135.755C358.197 135.755 358.188 135.636 358.124 135.59L357.268 135.093C357.223 135.072 357.175 135.062 357.126 135.062C357.076 135.062 357.028 135.072 356.983 135.093Z" fill="#3A2C6D"/>
<path d="M358.216 134.366L357.296 134.881C357.222 134.881 357.231 135.001 357.296 135.047L358.151 135.544C358.195 135.566 358.244 135.578 358.294 135.578C358.344 135.578 358.392 135.566 358.437 135.544L359.357 135.029C359.43 134.983 359.421 134.909 359.357 134.863L358.501 134.366C358.456 134.346 358.408 134.335 358.358 134.335C358.309 134.335 358.26 134.346 358.216 134.366Z" fill="#3A2C6D"/>
<path d="M359.486 133.639L358.565 134.155C358.492 134.155 358.501 134.265 358.565 134.32L359.421 134.808C359.465 134.83 359.514 134.842 359.564 134.842C359.613 134.842 359.662 134.83 359.706 134.808L360.626 134.293C360.7 134.293 360.691 134.182 360.626 134.127L359.771 133.639C359.727 133.617 359.678 133.605 359.628 133.605C359.579 133.605 359.53 133.617 359.486 133.639Z" fill="#3A2C6D"/>
<path d="M360.755 132.903L359.835 133.418C359.771 133.418 359.78 133.538 359.835 133.584L360.691 134.081C360.734 134.101 360.781 134.112 360.829 134.112C360.877 134.112 360.924 134.101 360.967 134.081L361.887 133.566C361.961 133.52 361.951 133.446 361.887 133.4L361.031 132.903C360.988 132.882 360.941 132.871 360.893 132.871C360.845 132.871 360.798 132.882 360.755 132.903Z" fill="#3A2C6D"/>
<path d="M362.025 132.167L361.105 132.682C361.031 132.728 361.04 132.802 361.105 132.848L361.951 133.345C361.995 133.367 362.044 133.379 362.094 133.379C362.143 133.379 362.192 133.367 362.236 133.345L363.157 132.83C363.23 132.83 363.221 132.71 363.157 132.664L362.31 132.176C362.267 132.152 362.218 132.139 362.169 132.137C362.119 132.136 362.07 132.146 362.025 132.167Z" fill="#3A2C6D"/>
<path d="M363.295 131.441L362.375 131.956C362.301 131.956 362.31 132.066 362.375 132.121L363.221 132.609C363.265 132.632 363.314 132.643 363.364 132.643C363.413 132.643 363.462 132.632 363.506 132.609L364.426 132.085C364.5 132.085 364.491 131.974 364.426 131.928L363.58 131.431C363.535 131.41 363.486 131.4 363.436 131.402C363.387 131.403 363.338 131.416 363.295 131.441Z" fill="#3A2C6D"/>
<path d="M364.555 130.705L363.635 131.22C363.561 131.266 363.571 131.34 363.635 131.386L364.491 131.882C364.535 131.905 364.584 131.917 364.633 131.917C364.683 131.917 364.732 131.905 364.776 131.882L365.696 131.367C365.77 131.321 365.76 131.248 365.696 131.202L364.84 130.705C364.796 130.682 364.747 130.67 364.698 130.67C364.648 130.67 364.599 130.682 364.555 130.705Z" fill="#3A2C6D"/>
<path d="M365.825 129.968L364.905 130.493C364.831 130.493 364.84 130.603 364.905 130.649L365.76 131.146C365.804 131.169 365.853 131.18 365.903 131.18C365.952 131.18 366.001 131.169 366.045 131.146L366.966 130.631C367.039 130.631 367.03 130.52 366.966 130.465L366.11 129.978C366.066 129.954 366.018 129.94 365.968 129.939C365.919 129.937 365.87 129.947 365.825 129.968Z" fill="#3A2C6D"/>
<path d="M367.104 129.242L366.184 129.757C366.11 129.803 366.119 129.877 366.184 129.923L367.039 130.41C367.083 130.433 367.132 130.445 367.182 130.445C367.231 130.445 367.28 130.433 367.324 130.41L368.245 129.895C368.318 129.849 368.309 129.775 368.245 129.729L367.389 129.233C367.344 129.211 367.295 129.201 367.245 129.203C367.196 129.204 367.147 129.218 367.104 129.242Z" fill="#3A2C6D"/>
<path d="M351.877 138L350.377 138.865C350.303 138.911 350.313 138.985 350.377 139.031L351.233 139.527C351.277 139.548 351.326 139.559 351.375 139.559C351.424 139.559 351.473 139.548 351.518 139.527L353.018 138.653C353.091 138.653 353.082 138.543 353.018 138.497L352.162 138C352.118 137.978 352.069 137.966 352.019 137.966C351.97 137.966 351.921 137.978 351.877 138Z" fill="#3A2C6D"/>
<path d="M369.514 129.177L368.594 129.693C368.553 129.715 368.507 129.727 368.461 129.727C368.414 129.727 368.368 129.715 368.327 129.693L367.407 129.177C367.334 129.177 367.334 129.067 367.407 129.021H367.481C367.545 129.021 367.545 128.911 367.481 128.874L366.561 128.322C366.541 128.322 366.523 128.314 366.509 128.3C366.495 128.287 366.487 128.268 366.487 128.248C366.487 128.229 366.495 128.21 366.509 128.196C366.523 128.182 366.541 128.175 366.561 128.175L367.122 127.843C367.163 127.821 367.209 127.809 367.255 127.809C367.302 127.809 367.348 127.821 367.389 127.843L368.309 128.359L368.493 128.469L368.631 128.543L368.76 128.616L369.533 129.067C369.539 129.075 369.544 129.085 369.547 129.095C369.55 129.105 369.551 129.116 369.549 129.127C369.547 129.137 369.543 129.147 369.537 129.156C369.531 129.165 369.523 129.172 369.514 129.177Z" fill="#3A2C6D"/>
<path d="M347.589 136.252L346.669 136.767C346.596 136.767 346.605 136.878 346.669 136.933L347.525 137.421C347.569 137.443 347.618 137.455 347.667 137.455C347.717 137.455 347.766 137.443 347.81 137.421L348.73 136.905C348.804 136.905 348.794 136.795 348.73 136.74L347.874 136.252C347.83 136.23 347.781 136.218 347.732 136.218C347.682 136.218 347.633 136.23 347.589 136.252Z" fill="#3A2C6D"/>
<path d="M348.859 135.516L347.939 136.032C347.865 136.032 347.874 136.151 347.939 136.197L348.785 136.694C348.829 136.717 348.878 136.728 348.928 136.728C348.977 136.728 349.026 136.717 349.07 136.694L349.99 136.179C350.064 136.133 350.055 136.059 349.99 136.013L349.144 135.526C349.101 135.501 349.052 135.488 349.003 135.486C348.953 135.485 348.904 135.495 348.859 135.516Z" fill="#3A2C6D"/>
<path d="M350.119 134.789L349.199 135.304C349.126 135.35 349.135 135.424 349.199 135.47L350.055 135.967C350.1 135.988 350.148 135.998 350.198 135.998C350.247 135.998 350.295 135.988 350.34 135.967L351.26 135.452C351.334 135.406 351.325 135.332 351.26 135.286L350.405 134.789C350.36 134.767 350.312 134.755 350.262 134.755C350.212 134.755 350.163 134.767 350.119 134.789Z" fill="#3A2C6D"/>
<path d="M360.875 128.579L359.955 129.095C359.881 129.141 359.89 129.214 359.955 129.26L360.81 129.757C360.855 129.778 360.904 129.788 360.953 129.788C361.002 129.788 361.051 129.778 361.096 129.757L362.016 129.242C362.089 129.196 362.08 129.122 362.016 129.076L361.16 128.579C361.116 128.557 361.067 128.545 361.017 128.545C360.968 128.545 360.919 128.557 360.875 128.579Z" fill="#3A2C6D"/>
<path d="M362.135 127.88L361.215 128.395C361.142 128.395 361.151 128.506 361.215 128.561L362.071 129.048C362.115 129.071 362.164 129.083 362.214 129.083C362.263 129.083 362.312 129.071 362.356 129.048L363.276 128.524C363.35 128.524 363.341 128.414 363.276 128.368L362.421 127.871C362.376 127.85 362.326 127.839 362.277 127.841C362.227 127.843 362.179 127.856 362.135 127.88Z" fill="#3A2C6D"/>
<path d="M363.423 127.116L362.503 127.641C362.43 127.641 362.439 127.751 362.503 127.797L363.35 128.294C363.394 128.317 363.443 128.328 363.492 128.328C363.542 128.328 363.591 128.317 363.635 128.294L364.555 127.779C364.629 127.779 364.619 127.668 364.555 127.613L363.709 127.126C363.665 127.102 363.617 127.088 363.567 127.087C363.518 127.085 363.468 127.095 363.423 127.116Z" fill="#3A2C6D"/>
<path d="M364.665 126.39L363.745 126.905C363.672 126.951 363.681 127.025 363.745 127.071L364.601 127.567C364.645 127.59 364.694 127.602 364.744 127.602C364.793 127.602 364.842 127.59 364.886 127.567L365.806 127.052C365.88 127.006 365.871 126.933 365.806 126.887L364.951 126.39C364.906 126.369 364.857 126.358 364.808 126.358C364.759 126.358 364.71 126.369 364.665 126.39Z" fill="#3A2C6D"/>
<path d="M351.711 133.869L350.487 134.578C350.414 134.578 350.423 134.688 350.487 134.743L351.343 135.231C351.387 135.254 351.436 135.265 351.486 135.265C351.535 135.265 351.584 135.254 351.628 135.231L352.852 134.523C352.916 134.477 352.907 134.403 352.852 134.357L351.996 133.869C351.953 133.845 351.904 133.833 351.854 133.833C351.804 133.833 351.755 133.845 351.711 133.869Z" fill="#3A2C6D"/>
<path d="M359.614 129.306L358.391 130.015C358.317 130.015 358.326 130.125 358.391 130.18L359.246 130.668C359.29 130.691 359.339 130.702 359.389 130.702C359.439 130.702 359.487 130.691 359.532 130.668L360.755 129.96C360.829 129.914 360.82 129.84 360.755 129.794L359.9 129.306C359.855 129.284 359.807 129.272 359.757 129.272C359.707 129.272 359.658 129.284 359.614 129.306Z" fill="#3A2C6D"/>
<path d="M358.023 130.226L352.079 133.658C352.006 133.704 352.015 133.778 352.079 133.824L352.935 134.32C352.979 134.343 353.028 134.355 353.077 134.355C353.127 134.355 353.176 134.343 353.22 134.32L359.164 130.889C359.237 130.843 359.228 130.769 359.164 130.723L358.308 130.226C358.264 130.204 358.215 130.192 358.165 130.192C358.116 130.192 358.067 130.204 358.023 130.226Z" fill="#3A2C6D"/>
<path d="M352.263 136.381L351.343 136.905C351.269 136.905 351.279 137.016 351.343 137.062L352.199 137.559C352.243 137.581 352.292 137.593 352.341 137.593C352.391 137.593 352.44 137.581 352.484 137.559L353.404 137.043C353.478 137.043 353.468 136.933 353.404 136.878L352.548 136.39C352.505 136.366 352.456 136.353 352.407 136.351C352.357 136.35 352.308 136.36 352.263 136.381Z" fill="#3A2C6D"/>
<path d="M353.533 135.654L352.613 136.169C352.539 136.215 352.548 136.289 352.613 136.335L353.468 136.832C353.513 136.852 353.562 136.863 353.611 136.863C353.66 136.863 353.709 136.852 353.754 136.832L354.674 136.316C354.747 136.27 354.738 136.197 354.674 136.151L353.818 135.654C353.774 135.631 353.725 135.62 353.675 135.62C353.626 135.62 353.577 135.631 353.533 135.654Z" fill="#3A2C6D"/>
<path d="M354.793 134.927L353.873 135.443C353.8 135.443 353.809 135.553 353.873 135.608L354.729 136.096C354.773 136.118 354.822 136.13 354.871 136.13C354.921 136.13 354.97 136.118 355.014 136.096L355.934 135.581C356.008 135.581 355.998 135.47 355.934 135.415L355.078 134.927C355.034 134.905 354.985 134.893 354.936 134.893C354.886 134.893 354.837 134.905 354.793 134.927Z" fill="#3A2C6D"/>
<path d="M356.063 134.191L355.143 134.707C355.069 134.753 355.078 134.826 355.143 134.872L355.999 135.369C356.043 135.392 356.092 135.403 356.141 135.403C356.191 135.403 356.24 135.392 356.284 135.369L357.204 134.854C357.277 134.808 357.268 134.734 357.204 134.688L356.348 134.191C356.303 134.171 356.255 134.16 356.206 134.16C356.156 134.16 356.108 134.171 356.063 134.191Z" fill="#3A2C6D"/>
<path d="M357.323 133.464L356.403 133.98C356.33 134.026 356.339 134.099 356.403 134.145L357.259 134.633C357.303 134.655 357.352 134.667 357.402 134.667C357.451 134.667 357.5 134.655 357.544 134.633L358.464 134.118C358.538 134.072 358.529 133.998 358.464 133.952L357.609 133.455C357.564 133.434 357.515 133.424 357.465 133.425C357.415 133.427 357.367 133.44 357.323 133.464Z" fill="#3A2C6D"/>
<path d="M358.593 132.729L357.673 133.253C357.599 133.253 357.609 133.364 357.673 133.41L358.529 133.906C358.573 133.929 358.622 133.941 358.671 133.941C358.721 133.941 358.77 133.929 358.814 133.906L359.734 133.391C359.808 133.391 359.798 133.281 359.734 133.226L358.878 132.738C358.835 132.714 358.786 132.7 358.737 132.699C358.687 132.697 358.638 132.708 358.593 132.729Z" fill="#3A2C6D"/>
<path d="M359.863 132.002L358.943 132.517C358.869 132.563 358.878 132.636 358.943 132.682L359.798 133.179C359.843 133.2 359.892 133.211 359.941 133.211C359.99 133.211 360.039 133.2 360.084 133.179L361.004 132.664C361.077 132.618 361.068 132.544 361.004 132.498L360.148 132.002C360.104 131.978 360.055 131.965 360.005 131.965C359.955 131.965 359.906 131.978 359.863 132.002Z" fill="#3A2C6D"/>
<path d="M361.123 131.275L360.203 131.79C360.13 131.79 360.139 131.901 360.203 131.956L361.059 132.444C361.103 132.466 361.152 132.478 361.201 132.478C361.251 132.478 361.3 132.466 361.344 132.444L362.264 131.928C362.338 131.928 362.328 131.818 362.264 131.763L361.408 131.275C361.364 131.253 361.315 131.241 361.266 131.241C361.216 131.241 361.167 131.253 361.123 131.275Z" fill="#3A2C6D"/>
<path d="M362.393 130.539L361.473 131.054C361.399 131.1 361.409 131.174 361.473 131.22L362.319 131.717C362.364 131.739 362.412 131.751 362.462 131.751C362.512 131.751 362.56 131.739 362.605 131.717L363.525 131.202C363.589 131.156 363.58 131.082 363.525 131.036L362.678 130.539C362.634 130.518 362.585 130.508 362.536 130.508C362.486 130.508 362.438 130.518 362.393 130.539Z" fill="#3A2C6D"/>
<path d="M363.653 129.812L362.733 130.327C362.66 130.373 362.669 130.447 362.733 130.493L363.589 130.981C363.633 131.003 363.682 131.015 363.732 131.015C363.781 131.015 363.83 131.003 363.874 130.981L364.794 130.465C364.868 130.419 364.859 130.346 364.794 130.3L363.939 129.803C363.894 129.782 363.844 129.772 363.795 129.773C363.745 129.775 363.697 129.788 363.653 129.812Z" fill="#3A2C6D"/>
<path d="M364.923 129.076L364.003 129.601C363.929 129.601 363.939 129.711 364.003 129.757L364.849 130.254C364.894 130.277 364.942 130.288 364.992 130.288C365.042 130.288 365.09 130.277 365.135 130.254L366.055 129.739C366.128 129.739 366.119 129.628 366.055 129.573L365.208 129.086C365.165 129.062 365.116 129.048 365.067 129.047C365.017 129.045 364.968 129.055 364.923 129.076Z" fill="#3A2C6D"/>
<path d="M366.184 128.349L365.263 128.865C365.19 128.911 365.199 128.984 365.263 129.03L366.119 129.527C366.164 129.548 366.212 129.558 366.262 129.558C366.311 129.558 366.36 129.548 366.404 129.527L367.324 129.012C367.398 128.966 367.389 128.892 367.324 128.846L366.469 128.349C366.425 128.327 366.376 128.315 366.326 128.315C366.277 128.315 366.228 128.327 366.184 128.349Z" fill="#3A2C6D"/>
<path d="M351.003 137.08L349.163 138.147C349.089 138.193 349.098 138.267 349.163 138.313L350.018 138.801C350.062 138.823 350.111 138.835 350.161 138.835C350.21 138.835 350.259 138.823 350.303 138.801L352.143 137.733C352.217 137.687 352.208 137.614 352.143 137.568L351.288 137.071C351.243 137.05 351.194 137.04 351.144 137.041C351.095 137.043 351.046 137.056 351.003 137.08Z" fill="#3A2C6D"/>
<path d="M350.414 136.041L349.494 136.556C349.42 136.556 349.429 136.675 349.494 136.721L350.34 137.209C350.384 137.232 350.433 137.243 350.483 137.243C350.532 137.243 350.581 137.232 350.625 137.209L351.545 136.694C351.619 136.694 351.61 136.574 351.545 136.528L350.699 136.031C350.654 136.01 350.605 136 350.555 136.002C350.506 136.003 350.457 136.017 350.414 136.041Z" fill="#3A2C6D"/>
<path d="M351.674 135.304L350.754 135.829C350.681 135.829 350.69 135.939 350.754 135.985L351.61 136.482C351.654 136.505 351.703 136.516 351.752 136.516C351.802 136.516 351.851 136.505 351.895 136.482L352.815 135.967C352.889 135.967 352.879 135.856 352.815 135.801L351.959 135.314C351.916 135.29 351.868 135.276 351.818 135.275C351.768 135.273 351.719 135.283 351.674 135.304Z" fill="#3A2C6D"/>
<path d="M352.944 134.578L352.024 135.093C351.95 135.093 351.959 135.213 352.024 135.259L352.87 135.755C352.915 135.776 352.964 135.787 353.013 135.787C353.062 135.787 353.111 135.776 353.156 135.755L354.076 135.24C354.149 135.24 354.14 135.121 354.076 135.075L353.229 134.578C353.185 134.555 353.136 134.543 353.087 134.543C353.037 134.543 352.988 134.555 352.944 134.578Z" fill="#3A2C6D"/>
<path d="M354.223 133.851L353.303 134.366C353.229 134.366 353.238 134.476 353.303 134.532L354.158 135.019C354.202 135.044 354.251 135.057 354.301 135.057C354.351 135.057 354.4 135.044 354.444 135.019L355.364 134.504C355.437 134.504 355.428 134.394 355.364 134.338L354.508 133.851C354.464 133.828 354.415 133.816 354.365 133.816C354.316 133.816 354.267 133.828 354.223 133.851Z" fill="#3A2C6D"/>
<path d="M355.474 133.115L354.554 133.63C354.48 133.676 354.49 133.75 354.554 133.796L355.4 134.292C355.445 134.315 355.493 134.327 355.543 134.327C355.593 134.327 355.642 134.315 355.686 134.292L356.606 133.777C356.679 133.777 356.67 133.658 356.606 133.612L355.759 133.115C355.715 133.094 355.666 133.083 355.617 133.083C355.567 133.083 355.519 133.094 355.474 133.115Z" fill="#3A2C6D"/>
<path d="M356.735 132.388L355.815 132.904C355.741 132.904 355.75 133.023 355.815 133.069L356.67 133.557C356.714 133.579 356.763 133.591 356.813 133.591C356.862 133.591 356.911 133.579 356.955 133.557L357.875 133.042C357.949 133.042 357.94 132.922 357.875 132.876L357.02 132.379C356.975 132.358 356.926 132.348 356.876 132.349C356.826 132.351 356.778 132.364 356.735 132.388Z" fill="#3A2C6D"/>
<path d="M358.004 131.652L357.084 132.176C357.011 132.176 357.02 132.287 357.084 132.333L357.931 132.83C357.975 132.852 358.024 132.864 358.073 132.864C358.123 132.864 358.172 132.852 358.216 132.83L359.136 132.314C359.21 132.314 359.2 132.204 359.136 132.149L358.289 131.661C358.246 131.637 358.198 131.624 358.148 131.622C358.098 131.621 358.049 131.631 358.004 131.652Z" fill="#3A2C6D"/>
<path d="M359.265 130.926L358.345 131.441C358.271 131.441 358.28 131.56 358.345 131.606L359.2 132.103C359.244 132.126 359.293 132.138 359.343 132.138C359.393 132.138 359.441 132.126 359.486 132.103L360.406 131.588C360.479 131.588 360.47 131.468 360.406 131.422L359.55 130.926C359.506 130.903 359.457 130.891 359.407 130.891C359.358 130.891 359.309 130.903 359.265 130.926Z" fill="#3A2C6D"/>
<path d="M360.534 130.198L359.614 130.714C359.541 130.714 359.55 130.824 359.614 130.879L360.461 131.367C360.505 131.389 360.554 131.401 360.603 131.401C360.653 131.401 360.702 131.389 360.746 131.367L361.666 130.842C361.74 130.842 361.73 130.732 361.666 130.686L360.82 130.189C360.775 130.168 360.725 130.158 360.676 130.159C360.626 130.161 360.578 130.174 360.534 130.198Z" fill="#3A2C6D"/>
<path d="M361.795 129.463L360.875 129.978C360.801 130.024 360.81 130.097 360.875 130.143L361.73 130.64C361.775 130.663 361.823 130.675 361.873 130.675C361.923 130.675 361.972 130.663 362.016 130.64L362.936 130.125C363.009 130.125 363 130.005 362.936 129.959L362.08 129.472C362.037 129.448 361.988 129.434 361.939 129.433C361.889 129.431 361.84 129.441 361.795 129.463Z" fill="#3A2C6D"/>
<path d="M363.065 128.736L362.144 129.251C362.071 129.251 362.08 129.371 362.144 129.417L362.991 129.904C363.035 129.927 363.084 129.939 363.134 129.939C363.183 129.939 363.232 129.927 363.276 129.904L364.196 129.389C364.27 129.389 364.261 129.27 364.196 129.224L363.35 128.727C363.305 128.706 363.256 128.695 363.206 128.697C363.156 128.699 363.108 128.712 363.065 128.736Z" fill="#3A2C6D"/>
<path d="M365.889 127.098L363.423 128.524C363.35 128.524 363.359 128.634 363.423 128.69L364.279 129.177C364.323 129.2 364.372 129.212 364.422 129.212C364.471 129.212 364.52 129.2 364.564 129.177L367.021 127.76C367.094 127.76 367.085 127.641 367.021 127.595L366.165 127.107C366.123 127.085 366.076 127.072 366.028 127.07C365.98 127.069 365.933 127.078 365.889 127.098Z" fill="#3A2C6D"/>
<path d="M349.144 136.768L347.92 137.476C347.856 137.476 347.865 137.586 347.92 137.642L348.776 138.129C348.819 138.152 348.866 138.163 348.914 138.163C348.962 138.163 349.01 138.152 349.052 138.129L350.276 137.43C350.349 137.43 350.34 137.31 350.276 137.264L349.42 136.768C349.377 136.748 349.33 136.738 349.282 136.738C349.235 136.738 349.188 136.748 349.144 136.768Z" fill="#3A2C6D"/>
<path d="M370.848 129.959L352.88 140.337C352.806 140.337 352.815 140.447 352.88 140.503L353.312 140.742C353.356 140.764 353.405 140.776 353.455 140.776C353.504 140.776 353.553 140.764 353.597 140.742L371.557 130.364C371.63 130.318 371.621 130.245 371.557 130.199L371.134 129.95C371.088 129.931 371.039 129.922 370.99 129.924C370.941 129.925 370.892 129.937 370.848 129.959Z" fill="#3A2C6D"/>
<path d="M349.825 130.419L349.945 130.493L353.045 132.287L358.566 129.095L358.676 129.03L355.456 127.172L349.825 130.419Z" fill="#BFBFBF"/>
<path d="M349.945 130.493L353.045 132.287L358.566 129.095L355.456 127.301L349.945 130.493Z" fill="#E5E5E5"/>
<path d="M340.965 134.605V134.881C340.965 135.081 341.018 135.277 341.118 135.45C341.219 135.623 341.362 135.766 341.535 135.866L352.475 142.177C352.646 142.282 352.844 142.336 353.045 142.333C353.243 142.336 353.438 142.282 353.606 142.177L373.406 130.751C373.58 130.652 373.725 130.509 373.825 130.336C373.926 130.163 373.978 129.966 373.976 129.766V129.49L353.045 141.579L340.965 134.605Z" fill="#E5E5E5"/>
<path d="M353.367 141.745C353.553 141.818 353.754 141.848 353.953 141.833C354.152 141.817 354.345 141.755 354.517 141.653L374.234 130.272C374.404 130.176 374.55 130.044 374.663 129.885C374.776 129.726 374.852 129.544 374.887 129.352L377.04 116.472C377.049 116.399 377.049 116.325 377.04 116.252C377.034 115.905 376.892 115.575 376.645 115.332L356.155 127.163C356.031 127.238 355.925 127.338 355.842 127.457C355.76 127.576 355.703 127.711 355.677 127.853L353.367 141.745Z" fill="#F4F4F4"/>
<path d="M353.045 141.579L353.183 141.653L353.367 141.745L355.695 127.816C355.722 127.674 355.778 127.539 355.861 127.42C355.943 127.301 356.05 127.201 356.173 127.126L376.663 115.295C376.581 115.212 376.488 115.141 376.387 115.083L355.861 126.96C355.732 127.029 355.621 127.127 355.538 127.247C355.455 127.367 355.401 127.505 355.382 127.65L353.045 141.579Z" fill="#E5E5E5"/>
<path d="M338.168 86.48C338.168 86.48 338.416 91.3836 338.306 91.816C338.195 92.2484 336.061 93.656 335.435 94.1988C334.81 94.7416 338.821 98.67 340.772 99.5624C342.722 100.455 348.896 98.0996 349.006 95.0636C349.116 92.0276 347.948 89.4884 347 89.3504C346.053 89.2124 338.168 86.48 338.168 86.48Z" fill="#FFCEA9"/>
<path d="M337.662 92.6806C337.662 92.6806 341.213 97.9706 346.172 98.4766C347.736 96.931 347.884 91.4478 345.712 89.6998C345.712 89.6998 347.7 88.0898 349.061 88.4026C350.526 89.2877 351.616 90.6787 352.125 92.3126C353.389 95.9539 353.981 99.7943 353.873 103.647C353.79 108.836 353.873 121.973 353.873 121.973C353.582 123.524 352.966 124.996 352.065 126.291C351.164 127.587 350 128.677 348.647 129.49C345.075 131.51 340.867 132.092 336.88 131.118C334.368 130.529 333.43 129.122 332.565 127.3C332.795 123.62 334.23 116.168 333.632 111.587C333.034 107.005 332.049 103.592 331.792 99.8842C331.534 96.1766 332.279 96.2594 334.138 94.9438C335.257 94.1058 336.434 93.3495 337.662 92.6806Z" fill="#F4F4F4"/>
<path d="M343.311 134.881C342.427 134.29 341.505 133.758 340.551 133.29C339.652 133.006 338.835 132.51 338.168 131.845C337.294 130.99 335.868 127.76 334.846 124.614C333.83 121.065 333.426 117.369 333.65 113.684C334.083 109.268 335.674 103.086 336.079 100.547C336.484 98.0076 335.656 96.9956 334.478 96.0664C333.089 94.9624 331.175 95.4501 330.154 99.0105C328.832 103.933 328.061 108.987 327.854 114.08C327.808 117.864 328.393 121.629 329.584 125.221C330.637 128.299 332.061 131.237 333.825 133.97C334.313 134.798 334.469 135.525 335.214 137.2C335.934 138.883 337.052 140.367 338.471 141.524C339.713 142.444 340.312 142.545 340.597 142.379C340.882 142.214 340.891 141.763 340.367 141.284C339.483 140.598 338.731 139.756 338.149 138.8C338.149 138.8 339.235 139.895 339.99 140.493C340.625 141.019 341.324 141.464 342.069 141.818C342.805 142.131 343.808 141.514 343.302 141.027C342.796 140.539 342.253 140.3 341.213 139.398C340.66 138.926 340.165 138.389 339.741 137.798C340.471 138.354 341.243 138.852 342.05 139.288C342.669 139.662 343.38 139.853 344.102 139.84C344.489 139.84 344.958 139.288 344.24 138.764C343.25 138.263 342.323 137.645 341.48 136.924C340.689 136.132 340.238 135.461 340.459 135.452C340.68 135.442 341.112 135.93 342.05 136.224C342.989 136.519 343.983 136.224 344.102 135.737C344.222 135.249 344.185 135.314 343.311 134.881Z" fill="#FFCEA9"/>
<path d="M349.245 79.2029C348.666 75.4033 345.924 72.5237 342.004 72.7629C340.012 72.884 338.147 73.7871 336.817 75.2757C335.487 76.7643 334.798 78.7181 334.902 80.7117C334.964 81.8589 335.291 82.9762 335.856 83.9766C336.421 84.9771 337.209 85.8338 338.159 86.4801C338.299 87.0558 338.503 87.6142 338.766 88.1453C340.155 89.7645 344.351 90.7673 345.556 90.5925C346.274 90.5352 346.958 90.2633 347.519 89.8121C348.08 89.3609 348.492 88.7512 348.703 88.0625C349.972 85.0725 349.567 81.0797 349.245 79.2029Z" fill="#FFCEA9"/>
<path d="M338.159 86.48L338.527 83.1681C338.527 83.1681 335.812 76.1485 342.207 77.5009C346.43 78.4209 347.497 78.7705 348.776 75.9369C350.055 73.1033 345.528 70.5549 340.146 71.2633C338.29 71.4568 336.575 72.3409 335.341 73.7401C334.107 75.1393 333.445 76.9513 333.485 78.8165C333.632 80.9601 334.184 85.1369 338.159 86.48Z" fill="#3A2C6D"/>
<path d="M327.201 105.543C327.201 105.543 330.697 109.011 334.828 108.017C335.426 107.613 336.843 99.489 336.843 99.489C336.843 99.489 336.843 94.9902 333.393 95.1098C329.942 95.2294 327.201 105.543 327.201 105.543Z" fill="#EDEDED"/>
<path d="M353.588 98.7987C354.565 98.7588 355.49 98.3474 356.173 97.6487C356.035 95.8087 353.708 88.9179 349.015 88.4487C350.295 89.3396 351.309 90.5605 351.95 91.9815C352.669 94.209 353.216 96.488 353.588 98.7987Z" fill="#EDEDED"/>
</svg>
