<svg width="334" height="303" viewBox="0 0 334 303" fill="none" xmlns="http://www.w3.org/2000/svg">
<path d="M34.2877 303L33.8683 302.844C26.848 300.198 20.4886 296.056 15.232 290.706C9.97538 285.357 5.94771 278.927 3.42893 271.864C2.04766 267.892 1.17246 263.761 0.823989 259.57L0.789758 259.17L1.18504 259.241C5.90381 260.087 10.8575 260.554 13.0646 260.737L0.682129 252.55L0.704473 252.125C0.798711 250.171 1.47627 248.29 2.64984 246.725C3.82341 245.159 5.43921 243.981 7.28905 243.341C9.15654 242.652 11.1878 242.537 13.121 243.012C15.0542 243.487 16.801 244.529 18.1361 246.005C19.3672 247.34 20.6686 248.684 21.9271 249.984C26.2519 254.45 30.724 259.069 33.5518 264.521C35.6516 268.669 36.7978 273.233 36.9065 277.881C37.0151 282.528 36.0837 287.141 34.18 291.382L34.2877 303Z" fill="#F2F2F2"/>
<path d="M284.83 295.066L284.825 295.022C284.278 282.878 282.048 270.868 278.199 259.336L278.196 259.317C277.971 258.133 278.036 256.912 278.386 255.758C278.906 254.158 279.983 252.798 281.422 251.924C282.861 251.05 284.566 250.721 286.226 250.997C289.772 251.662 293.439 251.037 296.563 249.233C297.542 248.666 298.638 248.332 299.767 248.257C300.896 248.182 302.027 248.369 303.072 248.803C304.057 249.204 304.935 249.83 305.634 250.63C306.334 251.431 306.836 252.384 307.101 253.414C307.143 253.578 307.18 253.744 307.211 253.912C307.324 266.113 309.566 278.201 313.839 289.632L313.841 289.647C314.062 290.81 314.003 292.009 313.669 293.146C313.336 294.282 312.738 295.324 311.924 296.184C311.203 296.915 310.329 297.478 309.365 297.832C308.402 298.186 307.371 298.322 306.348 298.231C302.63 297.978 298.806 298.732 294.657 300.536C293.209 301.181 291.579 301.295 290.054 300.859C288.732 300.472 287.543 299.725 286.621 298.702C285.698 297.68 285.078 296.421 284.83 295.066Z" fill="#A64949"/>
<path d="M224.68 145.2L224.635 145.197C212.586 143.52 200.363 143.52 188.314 145.197H188.295C187.088 145.202 185.899 144.915 184.827 144.361C183.348 143.558 182.206 142.252 181.608 140.679C181.011 139.106 180.998 137.371 181.572 135.789C182.874 132.427 182.928 128.71 181.723 125.312C181.343 124.247 181.214 123.109 181.347 121.986C181.479 120.863 181.869 119.786 182.487 118.838C183.061 117.944 183.837 117.196 184.753 116.654C185.668 116.113 186.698 115.794 187.759 115.721C187.928 115.71 188.098 115.704 188.269 115.704C200.295 117.819 212.598 117.821 224.624 115.709H224.64C225.825 115.705 226.994 115.981 228.051 116.516C229.109 117.051 230.024 117.828 230.722 118.785C231.31 119.627 231.704 120.588 231.877 121.599C232.049 122.611 231.995 123.648 231.72 124.637C230.792 128.244 230.836 132.138 231.855 136.543C232.225 138.084 232.04 139.706 231.333 141.125C230.711 142.353 229.759 143.385 228.584 144.105C227.409 144.824 226.058 145.204 224.68 145.2Z" fill="#A64949"/>
<path d="M261.733 82.3302L252.04 74.3146C244.771 78.1218 233.71 93.3216 233.71 93.3216L208.194 111.66C207.219 111.706 206.274 112.008 205.453 112.536C204.632 113.063 203.965 113.798 203.519 114.665C203.072 115.532 202.862 116.501 202.91 117.475C202.958 118.449 203.261 119.393 203.79 120.213C204.319 121.032 205.054 121.698 205.923 122.143C206.791 122.588 207.761 122.797 208.736 122.748C209.71 122.699 210.655 122.395 211.474 121.865C212.294 121.336 212.959 120.6 213.404 119.732L248.073 101.425L261.733 82.3302Z" fill="#FFB8B8"/>
<path d="M278.087 51.823C279.576 53.0828 280.768 54.6549 281.579 56.4276C282.391 58.2002 282.801 60.1298 282.782 62.0789C282.762 64.0281 282.313 65.9491 281.466 67.705C280.619 69.461 279.395 71.0089 277.881 72.2385L271.717 77.2458C271.717 77.2458 256.342 99.3639 248.339 101.93L227.792 112.656L218.527 103.374L237.149 88.2095C237.149 88.2095 245.713 80.1144 246.571 74.1886C247.096 70.5595 253.243 60.6739 259.404 53.3418C260.529 52.0146 261.906 50.9224 263.455 50.1276C265.004 49.3328 266.695 48.8511 268.43 48.71C270.165 48.5689 271.912 48.7713 273.569 49.3054C275.226 49.8396 276.761 50.6951 278.087 51.823V51.823Z" fill="#3F3D56"/>
<path d="M258.166 291.87L249.409 291.869L245.243 258.115L258.168 258.115L258.166 291.87Z" fill="#FFB6B6"/>
<path d="M324.893 245.81L320.746 253.517L289.021 241.2L295.143 229.825L324.893 245.81Z" fill="#FFB6B6"/>
<path d="M333.085 249.861L320.332 273.563L320.032 273.402C317.584 272.086 315.759 269.853 314.958 267.192C314.158 264.532 314.447 261.663 315.764 259.216L315.764 259.216L314.806 253.121L322.44 246.809L323.553 244.74L333.085 249.861Z" fill="#2F2E41"/>
<path d="M241.61 137.294L233.88 199.083L237.745 219.798L307.308 250.251L311.173 237.7C293.391 226.828 274.384 210.373 262.407 209.164C262.407 209.164 261.413 198.198 269.994 191.431C271.725 190.066 271.346 188.219 272.046 186.545C272.528 185.393 274.442 184.194 274.933 183.013C275.569 181.482 274.782 179.961 275.421 178.405C275.781 177.531 277.143 177.476 277.5 176.6C278.109 175.107 277.71 172.795 278.304 171.32C279.572 168.168 280.792 165.085 281.905 162.196C285.371 153.201 287.81 146.074 287.502 144.535C286.536 139.708 241.61 137.294 241.61 137.294Z" fill="#2F2E41"/>
<path d="M240.278 198.904L236.235 224.998L246.441 278.249H259.967C264.826 260.356 265.077 236.84 260.45 216.943L240.278 198.904Z" fill="#2F2E41"/>
<path d="M248.968 61.8015L255.204 50.9441L261.899 45.5773L274.459 43.6464L277.948 46.3276C290.506 65.5068 295.189 88.7825 291.025 111.321L290.045 116.627L289.422 119.994L289.692 124.02L287.596 129.88L287.884 134.171L288.038 136.463L288.193 138.763L288.409 141.974C288.795 143.807 286.85 143.565 287.125 145.18C287.608 148.017 289.774 152.22 286.483 152.234L252.473 145.18C243.833 145.216 235.789 134.921 244.131 126.585L248.968 61.8015Z" fill="#3F3D56"/>
<path d="M264.888 40.6218C274.009 40.6218 281.403 33.2332 281.403 24.1189C281.403 15.0045 274.009 7.61591 264.888 7.61591C255.767 7.61591 248.373 15.0045 248.373 24.1189C248.373 33.2332 255.767 40.6218 264.888 40.6218Z" fill="#FFB8B8"/>
<path d="M265.168 40.153C267.584 40.1907 269.999 40.022 272.387 39.6489C274.754 39.1679 280.049 35.2908 281.524 32.9578C282.621 31.2243 283.322 28.5175 283.718 26.552C284.25 23.9512 284.23 21.2676 283.658 18.675C283.086 16.0825 281.976 13.6388 280.4 11.5022C279.793 10.6086 278.957 9.89517 277.979 9.43752C277.892 9.40363 277.803 9.3736 277.712 9.34793C276.287 8.97308 275.006 8.18097 274.034 7.07329C273.845 6.84925 273.641 6.63907 273.422 6.44437C272.324 5.51801 271.021 4.86456 269.622 4.53746C267.363 3.93326 264.093 4.53302 259.904 6.32177C257.8 7.22048 255.498 6.89524 253.727 6.51145C253.628 6.49229 253.525 6.49943 253.43 6.5322C253.334 6.56496 253.249 6.62218 253.182 6.69818C252.429 7.40486 251.436 7.80044 250.402 7.80539C249.769 7.83316 249.106 8.70878 248.303 9.85062C248.121 10.1098 247.908 10.4123 247.755 10.5963L247.735 10.2428L247.377 10.6372C246.814 11.257 246.417 12.009 246.224 12.8231C246.03 13.6373 246.046 14.4872 246.27 15.2937C246.493 16.1001 246.917 16.8369 247.503 17.4354C248.088 18.0339 248.816 18.4747 249.617 18.7167C250.254 18.8859 250.906 18.9898 251.564 19.0266C251.962 19.0624 252.374 19.0995 252.769 19.168C254.037 19.4273 255.215 20.0107 256.19 20.8611C257.164 21.7114 257.901 22.7998 258.329 24.0199C258.43 24.3019 258.595 24.5569 258.811 24.7652C259.026 24.9735 259.287 25.1296 259.572 25.2213C259.857 25.3131 260.16 25.338 260.457 25.2943C260.753 25.2506 261.036 25.1394 261.283 24.9692C261.694 24.6491 262.177 24.4331 262.69 24.3398C263.203 24.2464 263.731 24.2785 264.229 24.4331C264.659 24.6722 264.994 25.0518 265.177 25.5084C265.4 26.017 265.77 26.4477 266.239 26.7457C267.842 27.572 267.953 31.2325 267.377 34.284C266.822 37.2253 265.724 39.3532 264.708 39.4583C263.926 39.5392 263.836 39.5947 263.779 39.733L263.729 39.8568L263.817 39.9725C264.249 40.1291 264.71 40.1906 265.168 40.153Z" fill="#2F2E41"/>
<path d="M231.739 30.4208L231.694 30.4177C219.645 28.7401 207.422 28.7401 195.373 30.4177H195.354C194.147 30.4223 192.958 30.1355 191.886 29.5817C190.407 28.7788 189.265 27.4721 188.667 25.8991C188.07 24.3261 188.057 22.5912 188.631 21.0097C189.933 17.6475 189.987 13.9305 188.782 10.5324C188.402 9.46735 188.274 8.32907 188.406 7.2062C188.539 6.08333 188.929 5.00614 189.546 4.0585C190.12 3.16393 190.896 2.41612 191.812 1.87489C192.727 1.33366 193.757 1.01404 194.818 0.941598C194.987 0.930325 195.157 0.924377 195.329 0.924377C207.354 3.03951 219.657 3.04109 231.684 0.929074H231.699C232.884 0.924913 234.053 1.20157 235.11 1.73636C236.168 2.27115 237.083 3.04882 237.782 4.00558C238.369 4.84709 238.764 5.80811 238.936 6.81976C239.108 7.83141 239.055 8.86863 238.779 9.85709C237.851 13.464 237.895 17.3586 238.914 21.7636C239.284 23.3047 239.099 24.9266 238.392 26.3452C237.77 27.5738 236.818 28.6054 235.643 29.3251C234.468 30.0447 233.117 30.4241 231.739 30.4208V30.4208Z" fill="#A64949"/>
<path d="M247.182 69.2894L254.016 58.733C249.383 51.964 232.983 42.7634 232.983 42.7634L211.776 19.5834C211.616 18.6215 211.205 17.7187 210.585 16.9659C209.965 16.213 209.157 15.6367 208.243 15.295C207.329 14.9532 206.341 14.8581 205.379 15.0191C204.416 15.1801 203.513 15.5917 202.761 16.2123C202.008 16.8329 201.432 17.6407 201.091 18.5544C200.75 19.4681 200.656 20.4554 200.819 21.4169C200.981 22.3784 201.394 23.2803 202.016 24.0316C202.638 24.783 203.447 25.3573 204.362 25.6969L226.608 57.9641L247.182 69.2894Z" fill="#FFB8B8"/>
<path d="M279.414 81.9541C278.336 83.5786 276.913 84.9457 275.246 85.9582C273.579 86.9707 271.709 87.6036 269.769 87.8119C267.83 88.0202 265.868 87.7988 264.024 87.1635C262.18 86.5281 260.498 85.4944 259.099 84.1359L253.402 78.6037C253.402 78.6037 229.522 66.1433 226.036 58.5006L210.389 36.3227L220.88 26.8649L239.116 43.4304C239.116 43.4304 247.513 53.1322 253.502 53.2908C257.171 53.3879 267.714 58.3326 275.721 63.5899C277.172 64.5521 278.418 65.7909 279.389 67.2351C280.36 68.6794 281.036 70.3008 281.379 72.0066C281.722 73.7124 281.725 75.469 281.388 77.1759C281.051 78.8828 280.38 80.5065 279.414 81.9541Z" fill="#3F3D56"/>
<path d="M120.33 300.902L120.286 300.899C108.237 299.222 96.0137 299.222 83.9649 300.899H83.9454C82.7391 300.904 81.5496 300.617 80.4781 300.063C78.9986 299.26 77.8564 297.954 77.2592 296.381C76.6619 294.808 76.6492 293.073 77.2233 291.491C78.5251 288.129 78.5785 284.412 77.3737 281.014C76.994 279.949 76.8654 278.811 76.9979 277.688C77.1304 276.565 77.5204 275.488 78.1376 274.54C78.712 273.646 79.488 272.898 80.4035 272.356C81.3189 271.815 82.3484 271.496 83.4096 271.423C83.5788 271.412 83.7487 271.406 83.9204 271.406C95.9461 273.521 108.249 273.523 120.275 271.411H120.29C121.475 271.407 122.645 271.683 123.702 272.218C124.759 272.753 125.675 273.53 126.373 274.487C126.961 275.329 127.355 276.29 127.528 277.301C127.7 278.313 127.646 279.35 127.37 280.339C126.443 283.946 126.487 287.84 127.506 292.245C127.875 293.786 127.691 295.408 126.984 296.827C126.361 298.055 125.41 299.087 124.235 299.807C123.06 300.526 121.708 300.906 120.33 300.902V300.902Z" fill="#A64949"/>
<path d="M130.598 273.971L130.553 273.968C118.504 272.29 106.281 272.29 94.2319 273.968H94.2125C93.0062 273.972 91.8167 273.686 90.7452 273.132C89.2657 272.329 88.1235 271.022 87.5263 269.449C86.929 267.876 86.9162 266.141 87.4903 264.56C88.7922 261.198 88.8456 257.481 87.6407 254.083C87.2611 253.017 87.1325 251.879 87.265 250.756C87.3975 249.633 87.7875 248.556 88.4046 247.609C88.9791 246.714 89.7551 245.966 90.6705 245.425C91.586 244.884 92.6155 244.564 93.6767 244.492C93.8459 244.48 94.0157 244.474 94.1875 244.474C106.213 246.59 118.516 246.591 130.542 244.479H130.557C131.743 244.475 132.912 244.752 133.969 245.286C135.027 245.821 135.942 246.599 136.64 247.556C137.228 248.397 137.622 249.358 137.795 250.37C137.967 251.382 137.913 252.419 137.638 253.407C136.71 257.014 136.754 260.909 137.773 265.314C138.142 266.855 137.958 268.477 137.251 269.895C136.629 271.124 135.677 272.156 134.502 272.875C133.327 273.595 131.976 273.974 130.598 273.971Z" fill="#A64949"/>
<path d="M40.7519 281.313L40.7794 281.278C48.9212 272.245 55.7702 262.128 61.1309 251.216L61.1418 251.2C61.8139 250.199 62.7182 249.375 63.7776 248.798C65.2721 248.024 66.9952 247.811 68.6337 248.198C70.2721 248.585 71.7173 249.546 72.7065 250.908C74.7639 253.869 77.815 255.996 81.3067 256.903C82.4023 257.185 83.4178 257.717 84.2743 258.455C85.1308 259.194 85.8051 260.121 86.2448 261.162C86.6644 262.139 86.8495 263.2 86.7851 264.261C86.7208 265.322 86.4089 266.353 85.8743 267.272C85.7889 267.419 85.6986 267.563 85.6024 267.705C77.1109 276.473 70.216 286.655 65.228 297.792L65.2196 297.804C64.559 298.788 63.6746 299.6 62.6388 300.176C61.603 300.751 60.4455 301.073 59.2611 301.115C58.2343 301.13 57.2168 300.918 56.2817 300.494C55.3466 300.07 54.5169 299.444 53.8522 298.662C51.3822 295.873 48.1294 293.727 43.9073 292.102C42.4228 291.545 41.1819 290.483 40.4021 289.103C39.7325 287.9 39.4106 286.534 39.4723 285.158C39.5341 283.783 39.9771 282.451 40.7519 281.313V281.313Z" fill="#A64949"/>
<path d="M258.475 300.998L231.545 300.997V300.657C231.545 297.879 232.65 295.215 234.615 293.251C236.581 291.287 239.247 290.183 242.027 290.183H242.027L246.947 286.454L256.125 290.184L258.475 290.184L258.475 300.998Z" fill="#2F2E41"/>
</svg>
