<svg width="483" height="429" viewBox="0 0 483 429" fill="none" xmlns="http://www.w3.org/2000/svg">
<g clip-path="url(#clip0_161_660)">
<path d="M55.7877 429L55.3683 428.844C48.348 426.198 41.9886 422.056 36.732 416.706C31.4754 411.357 27.4477 404.927 24.9289 397.864C23.5477 393.892 22.6725 389.761 22.324 385.57L22.2898 385.17L22.685 385.241C27.4038 386.087 32.3575 386.554 34.5646 386.737L22.1821 378.55L22.2045 378.125C22.2987 376.171 22.9763 374.29 24.1498 372.725C25.3234 371.159 26.9392 369.981 28.7891 369.341C30.6565 368.652 32.6878 368.537 34.621 369.012C36.5542 369.487 38.301 370.529 39.6361 372.005C40.8672 373.34 42.1686 374.684 43.4271 375.984C47.7519 380.45 52.224 385.069 55.0518 390.521C57.1516 394.669 58.2978 399.233 58.4065 403.881C58.5151 408.528 57.5837 413.141 55.68 417.382L55.7877 429Z" fill="#F2F2F2"/>
<path d="M306.33 421.066L306.325 421.022C305.778 408.878 303.548 396.868 299.699 385.336L299.696 385.317C299.471 384.133 299.536 382.912 299.886 381.758C300.406 380.158 301.483 378.798 302.922 377.924C304.361 377.05 306.066 376.721 307.726 376.997C311.272 377.662 314.939 377.037 318.063 375.233C319.042 374.666 320.138 374.332 321.267 374.257C322.396 374.182 323.527 374.369 324.572 374.803C325.557 375.204 326.435 375.83 327.134 376.63C327.834 377.431 328.336 378.384 328.601 379.414C328.643 379.578 328.68 379.744 328.711 379.912C328.824 392.113 331.066 404.201 335.339 415.632L335.341 415.647C335.562 416.81 335.503 418.009 335.169 419.146C334.836 420.282 334.238 421.324 333.424 422.184C332.703 422.915 331.829 423.478 330.865 423.832C329.902 424.186 328.871 424.322 327.848 424.231C324.13 423.978 320.306 424.732 316.157 426.536C314.709 427.181 313.079 427.295 311.554 426.859C310.232 426.472 309.043 425.725 308.121 424.702C307.198 423.68 306.578 422.421 306.33 421.066Z" fill="#A64949"/>
<path d="M187.473 254.246V413.719H299.277V254.246C299.279 253.099 298.912 251.982 298.232 251.058C297.551 250.135 296.592 249.454 295.496 249.115C294.979 248.944 294.437 248.86 293.893 248.866H192.873C192.165 248.865 191.463 249.003 190.808 249.273C190.154 249.542 189.559 249.938 189.057 250.438C188.556 250.938 188.158 251.531 187.886 252.184C187.614 252.838 187.474 253.538 187.473 254.246V254.246ZM231.105 309.042C231.134 305.898 232.405 302.892 234.64 300.679C236.875 298.466 239.894 297.225 243.04 297.225C246.187 297.225 249.206 298.466 251.441 300.679C253.676 302.892 254.947 305.898 254.976 309.042V327.545C254.961 330.699 253.696 333.718 251.46 335.942C249.223 338.166 246.196 339.415 243.04 339.415C239.885 339.415 236.858 338.166 234.621 335.942C232.384 333.718 231.12 330.699 231.105 327.545V309.042Z" fill="#F2F2F2"/>
<path d="M187.131 408.619V423.998C187.133 424.794 187.45 425.558 188.012 426.122C188.575 426.687 189.337 427.008 190.134 427.014H296.616C297.414 427.01 298.178 426.691 298.741 426.125C299.304 425.56 299.619 424.795 299.619 423.998V408.619H187.131Z" fill="#E6E6E6"/>
<path d="M11.5903 13.9789V305.154C11.5933 308.865 13.0697 312.423 15.6954 315.047C18.3212 317.671 21.8816 319.146 25.595 319.149H457.405C461.118 319.146 464.679 317.671 467.304 315.047C469.93 312.423 471.406 308.865 471.409 305.154V13.9789C471.401 10.2715 469.922 6.71867 467.297 4.09858C464.672 1.4785 461.115 0.00470606 457.405 0H25.595C21.8849 0.00472296 18.3278 1.47852 15.7029 4.0986C13.078 6.71868 11.5992 10.2715 11.5903 13.9789V13.9789Z" fill="#E6E6E6"/>
<path d="M453.803 10.1071H29.1975C27.2111 10.1114 25.3075 10.9029 23.9044 12.3079C22.5012 13.713 21.7131 15.6168 21.7129 17.6018V301.563C21.7163 303.545 22.506 305.446 23.9089 306.847C25.3118 308.249 27.2135 309.038 29.1975 309.042H453.803C455.787 309.038 457.689 308.249 459.092 306.847C460.494 305.446 461.284 303.545 461.287 301.563V17.6018C461.287 15.6168 460.499 13.713 459.096 12.3079C457.693 10.9029 455.789 10.1114 453.803 10.1071V10.1071ZM346.695 211.849C346.072 213.077 345.121 214.109 343.946 214.828C342.771 215.548 341.419 215.927 340.041 215.924L339.997 215.921C335.926 215.354 331.841 214.981 327.74 214.8C328.377 215.256 328.937 215.809 329.4 216.44C329.988 217.282 330.382 218.243 330.554 219.255C330.727 220.266 330.673 221.304 330.397 222.292C329.47 225.899 329.513 229.794 330.532 234.199C330.902 235.74 330.717 237.362 330.01 238.78C329.388 240.009 328.437 241.04 327.262 241.76C326.087 242.48 324.735 242.859 323.357 242.856L323.313 242.853C313.592 241.5 303.75 241.238 293.971 242.071C293.932 242.318 293.884 242.565 293.82 242.811C292.893 246.418 292.937 250.313 293.956 254.718C294.325 256.259 294.14 257.881 293.434 259.299C292.811 260.528 291.86 261.56 290.685 262.279C289.51 262.999 288.158 263.378 286.78 263.375L286.736 263.372C276.752 261.983 266.642 261.745 256.605 262.663C256.529 265.168 256.789 267.671 257.379 270.107C257.748 271.648 257.564 273.27 256.857 274.689C256.235 275.917 255.283 276.949 254.108 277.669C252.933 278.388 251.582 278.768 250.204 278.764L250.159 278.761C238.11 277.084 225.887 277.084 213.838 278.761H213.818C212.612 278.766 211.423 278.479 210.351 277.925C208.872 277.122 207.729 275.816 207.132 274.243C206.535 272.67 206.522 270.935 207.096 269.353C207.46 268.324 207.731 267.265 207.905 266.187C196.862 264.915 185.703 265.047 174.694 266.578H174.675C173.469 266.583 172.279 266.296 171.208 265.742C169.728 264.939 168.586 263.632 167.989 262.059C167.391 260.486 167.379 258.752 167.953 257.17C169.255 253.808 169.308 250.091 168.103 246.693C167.535 245.099 167.535 243.359 168.103 241.766C159.803 241.343 151.482 241.707 143.251 242.853H143.232C142.025 242.857 140.836 242.57 139.764 242.017C138.285 241.214 137.143 239.907 136.545 238.334C135.948 236.761 135.935 235.026 136.509 233.445C137.811 230.082 137.865 226.365 136.66 222.967C136.28 221.902 136.152 220.764 136.284 219.641C136.417 218.518 136.807 217.441 137.424 216.493C137.998 215.599 138.774 214.851 139.69 214.31C140.605 213.769 141.635 213.449 142.696 213.377C142.865 213.365 143.035 213.359 143.207 213.359C147.424 214.096 151.681 214.577 155.957 214.799C154.632 213.928 153.639 212.638 153.137 211.135C152.636 209.632 152.656 208.004 153.194 206.513C154.495 203.151 154.549 199.434 153.344 196.036C152.964 194.971 152.836 193.832 152.968 192.71C153.101 191.587 153.491 190.51 154.108 189.562C154.162 189.479 154.225 189.406 154.282 189.326C151.24 189.536 148.204 189.851 145.176 190.272H145.157C143.95 190.277 142.761 189.99 141.689 189.436C140.21 188.633 139.068 187.326 138.47 185.753C137.873 184.18 137.86 182.446 138.435 180.864C139.736 177.502 139.79 173.785 138.585 170.387C138.205 169.322 138.077 168.183 138.209 167.061C138.342 165.938 138.732 164.86 139.349 163.913C139.923 163.018 140.699 162.27 141.615 161.729C142.53 161.188 143.56 160.868 144.621 160.796C144.79 160.785 144.96 160.779 145.132 160.779C150.202 161.666 155.331 162.182 160.477 162.322C159.83 161.39 159.414 160.318 159.263 159.194C159.113 158.069 159.232 156.925 159.611 155.856C160.912 152.494 160.966 148.777 159.761 145.379C159.381 144.314 159.253 143.176 159.385 142.053C159.518 140.93 159.908 139.853 160.525 138.905C161.099 138.01 161.875 137.263 162.791 136.721C163.706 136.18 164.736 135.861 165.797 135.788C165.966 135.777 166.136 135.771 166.308 135.771C170.599 136.521 174.932 137.006 179.283 137.222C178.821 136.348 178.544 135.387 178.472 134.4C178.399 133.413 178.532 132.422 178.862 131.49C180.163 128.127 180.217 124.41 179.012 121.012C178.632 119.947 178.504 118.809 178.636 117.686C178.769 116.563 179.159 115.486 179.776 114.538C180.35 113.644 181.126 112.896 182.042 112.355C182.957 111.814 183.987 111.494 185.048 111.421C185.217 111.41 185.387 111.404 185.559 111.404C190.608 112.287 195.715 112.803 200.839 112.946C200.141 111.299 200.084 109.451 200.679 107.764C201.981 104.402 202.035 100.685 200.83 97.2869C200.45 96.2218 200.321 95.0835 200.454 93.9607C200.586 92.8378 200.976 91.7606 201.594 90.813C202.168 89.9184 202.944 89.1706 203.86 88.6293C204.775 88.0881 205.805 87.7685 206.866 87.6961C207.035 87.6848 207.205 87.6788 207.376 87.6788C219.402 89.794 231.705 89.7956 243.731 87.6835H243.746C244.675 87.8746 245.632 87.8746 246.56 87.6835H246.575C258.601 89.7956 270.904 89.794 282.93 87.6788C283.102 87.6788 283.272 87.6848 283.441 87.6961C284.502 87.7685 285.532 88.0881 286.447 88.6293C287.363 89.1706 288.139 89.9184 288.713 90.813C289.33 91.7606 289.72 92.8378 289.853 93.9607C289.985 95.0835 289.857 96.2218 289.477 97.2869C288.272 100.685 288.325 104.402 289.627 107.764C290.222 109.451 290.166 111.299 289.468 112.946C294.592 112.803 299.699 112.287 304.748 111.404C304.92 111.404 305.089 111.41 305.259 111.421C306.32 111.494 307.349 111.814 308.265 112.355C309.18 112.896 309.956 113.644 310.531 114.538C311.148 115.486 311.538 116.563 311.67 117.686C311.803 118.809 311.674 119.947 311.295 121.012C310.09 124.41 310.143 128.127 311.445 131.49C311.775 132.422 311.907 133.413 311.835 134.4C311.762 135.387 311.486 136.348 311.024 137.222C315.375 137.006 319.708 136.521 323.999 135.771C324.171 135.771 324.34 135.777 324.51 135.788C325.571 135.861 326.6 136.18 327.516 136.721C328.431 137.263 329.207 138.01 329.782 138.905C330.399 139.853 330.789 140.93 330.921 142.053C331.054 143.176 330.925 144.314 330.546 145.379C329.341 148.777 329.394 152.494 330.696 155.856C331.076 156.928 331.195 158.075 331.043 159.202C330.89 160.329 330.471 161.403 329.82 162.336C330.393 162.768 330.9 163.282 331.325 163.86C331.913 164.701 332.307 165.662 332.48 166.674C332.652 167.686 332.598 168.723 332.322 169.711C331.395 173.318 331.439 177.213 332.458 181.618C332.827 183.159 332.642 184.781 331.936 186.2C331.677 186.704 331.362 187.179 330.997 187.613C334.001 187.349 336.997 186.956 339.986 186.432H340.001C341.186 186.428 342.356 186.705 343.413 187.24C344.47 187.775 345.386 188.552 346.084 189.509C346.672 190.35 347.066 191.311 347.239 192.323C347.411 193.335 347.357 194.372 347.081 195.36C346.154 198.967 346.198 202.862 347.217 207.267C347.586 208.808 347.401 210.43 346.695 211.849V211.849Z" fill="white"/>
<path d="M440.03 49.2239H42.7291C42.3161 49.2148 41.9231 49.0444 41.6342 48.7493C41.3453 48.4542 41.1836 48.0579 41.1836 47.6451C41.1836 47.2323 41.3453 46.8359 41.6342 46.5408C41.9231 46.2457 42.3161 46.0754 42.7291 46.0663H440.03C440.443 46.0754 440.836 46.2457 441.125 46.5408C441.414 46.8359 441.576 47.2323 441.576 47.6451C441.576 48.0579 441.414 48.4542 441.125 48.7493C440.836 49.0444 440.443 49.2148 440.03 49.2239V49.2239Z" fill="#E6E6E6"/>
<path d="M69.7739 38.0054C74.8877 38.0054 79.0332 33.7706 79.0332 28.5467C79.0332 23.3228 74.8877 19.088 69.7739 19.088C64.6602 19.088 60.5146 23.3228 60.5146 28.5467C60.5146 33.7706 64.6602 38.0054 69.7739 38.0054Z" fill="#3F3D56"/>
<path d="M101.761 38.0054C106.875 38.0054 111.02 33.7706 111.02 28.5467C111.02 23.3228 106.875 19.088 101.761 19.088C96.647 19.088 92.5015 23.3228 92.5015 28.5467C92.5015 33.7706 96.647 38.0054 101.761 38.0054Z" fill="#3F3D56"/>
<path d="M133.748 38.0054C138.861 38.0054 143.007 33.7706 143.007 28.5467C143.007 23.3228 138.861 19.088 133.748 19.088C128.634 19.088 124.488 23.3228 124.488 28.5467C124.488 33.7706 128.634 38.0054 133.748 38.0054Z" fill="#3F3D56"/>
<path d="M420.769 21.4269H398.051C397.602 21.4371 397.174 21.6227 396.86 21.9438C396.546 22.2649 396.37 22.6961 396.37 23.1451C396.37 23.5941 396.546 24.0253 396.86 24.3464C397.174 24.6675 397.602 24.853 398.051 24.8633H420.769C421.221 24.8571 421.653 24.6734 421.97 24.3518C422.287 24.0303 422.465 23.5968 422.465 23.1451C422.465 22.6934 422.287 22.2599 421.97 21.9383C421.653 21.6168 421.221 21.433 420.769 21.4269H420.769Z" fill="#3F3D56"/>
<path d="M420.77 27.8799H398.051C397.602 27.8901 397.174 28.0756 396.86 28.3967C396.546 28.7178 396.37 29.149 396.37 29.598C396.37 30.0471 396.546 30.4783 396.86 30.7994C397.174 31.1205 397.602 31.306 398.051 31.3162H420.77C421.222 31.3102 421.653 31.1265 421.971 30.8049C422.288 30.4834 422.466 30.0498 422.466 29.598C422.466 29.1463 422.288 28.7127 421.971 28.3912C421.653 28.0696 421.222 27.8859 420.77 27.8799H420.77Z" fill="#3F3D56"/>
<path d="M420.769 34.3328H398.051C397.602 34.343 397.174 34.5286 396.86 34.8497C396.546 35.1708 396.37 35.602 396.37 36.051C396.37 36.5 396.546 36.9312 396.86 37.2523C397.174 37.5734 397.602 37.7589 398.051 37.7692H420.769C421.221 37.763 421.653 37.5793 421.97 37.2577C422.287 36.9362 422.465 36.5026 422.465 36.051C422.465 35.5993 422.287 35.1658 421.97 34.8442C421.653 34.5227 421.221 34.3389 420.769 34.3328H420.769Z" fill="#3F3D56"/>
<path d="M246.18 271.2L246.135 271.197C234.086 269.52 221.863 269.52 209.814 271.197H209.795C208.588 271.202 207.399 270.915 206.327 270.361C204.848 269.558 203.706 268.252 203.108 266.679C202.511 265.106 202.498 263.371 203.072 261.789C204.374 258.427 204.428 254.71 203.223 251.312C202.843 250.247 202.714 249.109 202.847 247.986C202.979 246.863 203.369 245.786 203.987 244.838C204.561 243.944 205.337 243.196 206.253 242.654C207.168 242.113 208.198 241.794 209.259 241.721C209.428 241.71 209.598 241.704 209.769 241.704C221.795 243.819 234.098 243.821 246.124 241.709H246.14C247.325 241.705 248.494 241.981 249.551 242.516C250.609 243.051 251.524 243.828 252.222 244.785C252.81 245.627 253.204 246.588 253.377 247.599C253.549 248.611 253.495 249.648 253.22 250.637C252.292 254.244 252.336 258.138 253.355 262.543C253.725 264.084 253.54 265.706 252.833 267.125C252.211 268.353 251.259 269.385 250.084 270.105C248.909 270.824 247.558 271.204 246.18 271.2Z" fill="#A64949"/>
<path d="M283.233 208.33L273.54 200.315C266.271 204.122 255.21 219.322 255.21 219.322L229.694 237.66C228.719 237.706 227.774 238.008 226.953 238.536C226.132 239.063 225.465 239.798 225.019 240.665C224.572 241.532 224.362 242.501 224.41 243.475C224.458 244.449 224.761 245.393 225.29 246.213C225.819 247.032 226.554 247.698 227.423 248.143C228.291 248.588 229.261 248.797 230.236 248.748C231.21 248.699 232.155 248.395 232.974 247.865C233.794 247.336 234.459 246.6 234.904 245.732L269.573 227.425L283.233 208.33Z" fill="#FFB8B8"/>
<path d="M299.587 177.823C301.076 179.083 302.268 180.655 303.079 182.428C303.891 184.2 304.301 186.13 304.282 188.079C304.262 190.028 303.813 191.949 302.966 193.705C302.119 195.461 300.895 197.009 299.381 198.239L293.217 203.246C293.217 203.246 277.842 225.364 269.839 227.93L249.292 238.656L240.027 229.374L258.649 214.21C258.649 214.21 267.213 206.114 268.071 200.189C268.596 196.56 274.743 186.674 280.904 179.342C282.029 178.015 283.406 176.922 284.955 176.128C286.504 175.333 288.195 174.851 289.93 174.71C291.665 174.569 293.412 174.771 295.069 175.306C296.726 175.84 298.261 176.695 299.587 177.823V177.823Z" fill="#3F3D56"/>
<path d="M279.666 417.87L270.909 417.869L266.743 384.115L279.668 384.115L279.666 417.87Z" fill="#FFB6B6"/>
<path d="M279.975 426.998L253.045 426.997V426.657C253.045 423.879 254.15 421.215 256.115 419.251C258.081 417.287 260.747 416.183 263.527 416.183H263.527L268.447 412.454L277.625 416.184L279.975 416.184L279.975 426.998Z" fill="#2F2E41"/>
<path d="M346.393 371.81L342.246 379.517L310.521 367.2L316.643 355.825L346.393 371.81Z" fill="#FFB6B6"/>
<path d="M354.585 375.861L341.832 399.563L341.532 399.402C339.084 398.086 337.259 395.853 336.458 393.192C335.658 390.532 335.947 387.663 337.264 385.216L337.264 385.216L336.306 379.121L343.94 372.809L345.053 370.74L354.585 375.861Z" fill="#2F2E41"/>
<path d="M263.11 263.294L255.38 325.083L259.245 345.798L328.808 376.251L332.673 363.7C314.891 352.828 295.884 336.373 283.907 335.164C283.907 335.164 282.913 324.198 291.494 317.431C293.225 316.066 292.846 314.219 293.546 312.545C294.028 311.393 295.942 310.194 296.433 309.013C297.069 307.482 296.282 305.961 296.921 304.405C297.281 303.531 298.643 303.476 299 302.6C299.609 301.107 299.21 298.795 299.804 297.32C301.072 294.168 302.292 291.085 303.405 288.196C306.871 279.201 309.31 272.074 309.002 270.535C308.036 265.708 263.11 263.294 263.11 263.294Z" fill="#2F2E41"/>
<path d="M261.778 324.904L257.735 350.998L267.941 404.249H281.467C286.326 386.356 286.577 362.84 281.95 342.943L261.778 324.904Z" fill="#2F2E41"/>
<path d="M270.468 187.802L276.704 176.944L283.399 171.577L295.959 169.646L299.448 172.328C312.006 191.507 316.689 214.783 312.525 237.321L311.545 242.627L310.922 245.994L311.192 250.02L309.096 255.88L309.384 260.171L309.538 262.463L309.693 264.763L309.909 267.974C310.295 269.807 308.35 269.565 308.625 271.18C309.108 274.017 311.274 278.22 307.983 278.234L273.973 271.18C265.333 271.216 257.289 260.921 265.631 252.585L270.468 187.802Z" fill="#3F3D56"/>
<path d="M286.388 166.622C295.509 166.622 302.903 159.233 302.903 150.119C302.903 141.005 295.509 133.616 286.388 133.616C277.267 133.616 269.873 141.005 269.873 150.119C269.873 159.233 277.267 166.622 286.388 166.622Z" fill="#FFB8B8"/>
<path d="M286.668 166.153C289.084 166.191 291.499 166.022 293.887 165.649C296.254 165.168 301.549 161.291 303.024 158.958C304.121 157.224 304.822 154.517 305.218 152.552C305.75 149.951 305.73 147.268 305.158 144.675C304.586 142.083 303.476 139.639 301.9 137.502C301.293 136.609 300.457 135.895 299.479 135.438C299.392 135.404 299.303 135.374 299.212 135.348C297.787 134.973 296.506 134.181 295.534 133.073C295.345 132.849 295.141 132.639 294.922 132.444C293.824 131.518 292.521 130.865 291.122 130.537C288.863 129.933 285.593 130.533 281.404 132.322C279.3 133.22 276.998 132.895 275.227 132.511C275.128 132.492 275.025 132.499 274.93 132.532C274.834 132.565 274.749 132.622 274.682 132.698C273.929 133.405 272.936 133.8 271.902 133.805C271.269 133.833 270.606 134.709 269.803 135.851C269.621 136.11 269.408 136.412 269.255 136.596L269.235 136.243L268.877 136.637C268.314 137.257 267.917 138.009 267.724 138.823C267.53 139.637 267.546 140.487 267.77 141.294C267.993 142.1 268.417 142.837 269.003 143.435C269.588 144.034 270.316 144.475 271.117 144.717C271.754 144.886 272.406 144.99 273.064 145.027C273.462 145.062 273.874 145.099 274.269 145.168C275.537 145.427 276.715 146.011 277.69 146.861C278.664 147.711 279.401 148.8 279.829 150.02C279.93 150.302 280.095 150.557 280.311 150.765C280.526 150.974 280.787 151.13 281.072 151.221C281.357 151.313 281.66 151.338 281.957 151.294C282.253 151.251 282.536 151.139 282.783 150.969C283.194 150.649 283.677 150.433 284.19 150.34C284.703 150.246 285.231 150.278 285.729 150.433C286.159 150.672 286.494 151.052 286.677 151.508C286.9 152.017 287.27 152.448 287.739 152.746C289.342 153.572 289.453 157.232 288.877 160.284C288.322 163.225 287.224 165.353 286.208 165.458C285.426 165.539 285.336 165.595 285.279 165.733L285.229 165.857L285.317 165.973C285.749 166.129 286.21 166.191 286.668 166.153Z" fill="#2F2E41"/>
<path d="M253.239 156.421L253.194 156.418C241.145 154.74 228.922 154.74 216.873 156.418H216.854C215.647 156.422 214.458 156.136 213.386 155.582C211.907 154.779 210.765 153.472 210.167 151.899C209.57 150.326 209.557 148.591 210.131 147.01C211.433 143.648 211.487 139.931 210.282 136.533C209.902 135.467 209.774 134.329 209.906 133.206C210.039 132.083 210.429 131.006 211.046 130.059C211.62 129.164 212.396 128.416 213.312 127.875C214.227 127.334 215.257 127.014 216.318 126.942C216.487 126.93 216.657 126.924 216.829 126.924C228.854 129.04 241.157 129.041 253.184 126.929H253.199C254.384 126.925 255.553 127.202 256.61 127.736C257.668 128.271 258.583 129.049 259.282 130.006C259.869 130.847 260.264 131.808 260.436 132.82C260.608 133.831 260.555 134.869 260.279 135.857C259.351 139.464 259.395 143.359 260.414 147.764C260.784 149.305 260.599 150.927 259.892 152.345C259.27 153.574 258.318 154.605 257.143 155.325C255.968 156.045 254.617 156.424 253.239 156.421V156.421Z" fill="#A64949"/>
<path d="M268.682 195.289L275.516 184.733C270.883 177.964 254.483 168.763 254.483 168.763L233.276 145.583C233.116 144.622 232.705 143.719 232.085 142.966C231.465 142.213 230.657 141.637 229.743 141.295C228.829 140.953 227.841 140.858 226.879 141.019C225.916 141.18 225.013 141.592 224.261 142.212C223.508 142.833 222.932 143.641 222.591 144.554C222.25 145.468 222.156 146.455 222.319 147.417C222.481 148.378 222.894 149.28 223.516 150.032C224.138 150.783 224.947 151.357 225.862 151.697L248.108 183.964L268.682 195.289Z" fill="#FFB8B8"/>
<path d="M300.914 207.954C299.836 209.579 298.413 210.946 296.746 211.958C295.079 212.971 293.209 213.604 291.269 213.812C289.33 214.02 287.368 213.799 285.524 213.163C283.68 212.528 281.998 211.494 280.599 210.136L274.902 204.604C274.902 204.604 251.022 192.143 247.536 184.501L231.889 162.323L242.38 152.865L260.616 169.43C260.616 169.43 269.013 179.132 275.002 179.291C278.671 179.388 289.214 184.333 297.221 189.59C298.672 190.552 299.918 191.791 300.889 193.235C301.86 194.679 302.536 196.301 302.879 198.007C303.222 199.712 303.225 201.469 302.888 203.176C302.551 204.883 301.88 206.506 300.914 207.954Z" fill="#3F3D56"/>
<path d="M141.83 426.902L141.786 426.899C129.737 425.222 117.514 425.222 105.465 426.899H105.445C104.239 426.904 103.05 426.617 101.978 426.063C100.499 425.26 99.3564 423.954 98.7592 422.381C98.1619 420.808 98.1492 419.073 98.7233 417.491C100.025 414.129 100.078 410.412 98.8737 407.014C98.494 405.949 98.3654 404.811 98.4979 403.688C98.6304 402.565 99.0204 401.488 99.6376 400.54C100.212 399.646 100.988 398.898 101.903 398.356C102.819 397.815 103.848 397.496 104.91 397.423C105.079 397.412 105.249 397.406 105.42 397.406C117.446 399.521 129.749 399.523 141.775 397.411H141.79C142.975 397.407 144.145 397.683 145.202 398.218C146.259 398.753 147.175 399.53 147.873 400.487C148.461 401.329 148.855 402.29 149.028 403.301C149.2 404.313 149.146 405.35 148.87 406.339C147.943 409.946 147.987 413.84 149.006 418.245C149.375 419.786 149.191 421.408 148.484 422.827C147.861 424.055 146.91 425.087 145.735 425.807C144.56 426.526 143.208 426.906 141.83 426.902V426.902Z" fill="#A64949"/>
<path d="M152.098 399.971L152.053 399.968C140.004 398.29 127.781 398.29 115.732 399.968H115.713C114.506 399.972 113.317 399.686 112.245 399.132C110.766 398.329 109.624 397.022 109.026 395.449C108.429 393.876 108.416 392.141 108.99 390.56C110.292 387.198 110.346 383.481 109.141 380.083C108.761 379.017 108.632 377.879 108.765 376.756C108.897 375.633 109.287 374.556 109.905 373.609C110.479 372.714 111.255 371.966 112.171 371.425C113.086 370.884 114.116 370.564 115.177 370.492C115.346 370.48 115.516 370.474 115.687 370.474C127.713 372.59 140.016 372.591 152.042 370.479H152.057C153.243 370.475 154.412 370.752 155.469 371.286C156.527 371.821 157.442 372.599 158.14 373.556C158.728 374.397 159.122 375.358 159.295 376.37C159.467 377.382 159.413 378.419 159.138 379.407C158.21 383.014 158.254 386.909 159.273 391.314C159.642 392.855 159.458 394.477 158.751 395.895C158.129 397.124 157.177 398.156 156.002 398.875C154.827 399.595 153.476 399.974 152.098 399.971Z" fill="#A64949"/>
<path d="M62.2519 407.313L62.2794 407.278C70.4212 398.245 77.2702 388.128 82.6309 377.216L82.6418 377.2C83.3139 376.199 84.2182 375.375 85.2776 374.798C86.7721 374.024 88.4952 373.81 90.1337 374.198C91.7721 374.585 93.2173 375.546 94.2065 376.907C96.2639 379.869 99.315 381.996 102.807 382.903C103.902 383.185 104.918 383.716 105.774 384.455C106.631 385.194 107.305 386.12 107.745 387.162C108.164 388.139 108.349 389.2 108.285 390.261C108.221 391.322 107.909 392.353 107.374 393.272C107.289 393.419 107.199 393.563 107.102 393.705C98.6109 402.473 91.716 412.655 86.728 423.792L86.7196 423.804C86.059 424.787 85.1746 425.6 84.1388 426.176C83.103 426.751 81.9455 427.073 80.7611 427.115C79.7343 427.13 78.7168 426.918 77.7817 426.494C76.8466 426.069 76.0169 425.444 75.3522 424.662C72.8822 421.873 69.6294 419.727 65.4073 418.102C63.9228 417.545 62.6819 416.483 61.9021 415.103C61.2325 413.899 60.9106 412.534 60.9723 411.158C61.0341 409.783 61.4771 408.451 62.2519 407.313V407.313Z" fill="#A64949"/>
<path d="M481.736 427.88L1.26429 428.077C1.06203 428.077 0.868265 427.996 0.725454 427.853C0.582642 427.71 0.502441 427.516 0.502441 427.314C0.502441 427.112 0.582642 426.918 0.725454 426.775C0.868265 426.632 1.06203 426.551 1.26429 426.55L481.736 426.353C481.938 426.354 482.132 426.435 482.275 426.578C482.418 426.721 482.498 426.915 482.498 427.117C482.498 427.319 482.418 427.513 482.275 427.656C482.132 427.799 481.938 427.88 481.736 427.88V427.88Z" fill="#CACACA"/>
</g>
<defs>
<clipPath id="clip0_161_660">
<rect width="482" height="429" fill="white" transform="translate(0.5)"/>
</clipPath>
</defs>
</svg>
