<svg width="482" height="429" viewBox="0 0 482 429" fill="none" xmlns="http://www.w3.org/2000/svg">
<path d="M186.973 254.246V413.72H298.777V254.246C298.779 253.099 298.412 251.982 297.732 251.058C297.051 250.135 296.092 249.454 294.996 249.115C294.479 248.944 293.937 248.86 293.393 248.866H192.373C191.665 248.865 190.963 249.003 190.308 249.273C189.654 249.542 189.059 249.938 188.557 250.438C188.056 250.938 187.658 251.531 187.386 252.185C187.114 252.838 186.974 253.539 186.973 254.246V254.246ZM230.605 309.042C230.634 305.898 231.905 302.892 234.14 300.679C236.375 298.466 239.394 297.225 242.54 297.225C245.687 297.225 248.706 298.466 250.941 300.679C253.176 302.892 254.447 305.898 254.476 309.042V327.545C254.461 330.699 253.196 333.718 250.96 335.942C248.723 338.166 245.696 339.415 242.54 339.415C239.385 339.415 236.358 338.166 234.121 335.942C231.884 333.718 230.62 330.699 230.605 327.545V309.042Z" fill="#F2F2F2"/>
<path d="M186.631 408.619V423.998C186.633 424.794 186.95 425.558 187.512 426.122C188.075 426.687 188.837 427.008 189.634 427.014H296.116C296.914 427.01 297.678 426.691 298.241 426.125C298.804 425.56 299.119 424.795 299.119 423.998V408.619H186.631Z" fill="#E6E6E6"/>
<path d="M11.0903 13.9789V305.154C11.0933 308.865 12.5697 312.423 15.1954 315.047C17.8212 317.671 21.3816 319.146 25.095 319.149H456.905C460.618 319.146 464.179 317.671 466.804 315.047C469.43 312.423 470.906 308.865 470.909 305.154V13.9789C470.901 10.2715 469.422 6.71867 466.797 4.09858C464.172 1.4785 460.615 0.00470606 456.905 0H25.095C21.3849 0.00472296 17.8278 1.47852 15.2029 4.0986C12.578 6.71868 11.0992 10.2715 11.0903 13.9789V13.9789Z" fill="#E6E6E6"/>
<path d="M453.303 10.107H28.6975C26.7111 10.1113 24.8075 10.9029 23.4044 12.3079C22.0012 13.713 21.2131 15.6168 21.2129 17.6018V301.563C21.2163 303.545 22.006 305.446 23.4089 306.847C24.8118 308.249 26.7135 309.038 28.6975 309.042H453.303C455.287 309.038 457.189 308.249 458.592 306.847C459.994 305.446 460.784 303.545 460.787 301.563V17.6018C460.787 15.6168 459.999 13.713 458.596 12.3079C457.193 10.9029 455.289 10.1113 453.303 10.107V10.107ZM346.195 211.849C345.572 213.077 344.621 214.109 343.446 214.828C342.271 215.548 340.919 215.927 339.541 215.924L339.497 215.921C335.426 215.354 331.341 214.981 327.24 214.8C327.877 215.256 328.437 215.809 328.9 216.44C329.488 217.282 329.882 218.243 330.054 219.255C330.227 220.266 330.173 221.304 329.897 222.292C328.97 225.899 329.013 229.794 330.032 234.199C330.402 235.74 330.217 237.361 329.51 238.78C328.888 240.009 327.937 241.04 326.762 241.76C325.587 242.48 324.235 242.859 322.857 242.856L322.813 242.853C313.092 241.5 303.25 241.238 293.471 242.071C293.432 242.318 293.384 242.565 293.32 242.811C292.393 246.418 292.437 250.313 293.456 254.718C293.825 256.259 293.64 257.881 292.934 259.299C292.311 260.528 291.36 261.56 290.185 262.279C289.01 262.999 287.658 263.378 286.28 263.375L286.236 263.372C276.252 261.983 266.142 261.745 256.105 262.663C256.029 265.168 256.289 267.671 256.879 270.107C257.248 271.648 257.064 273.27 256.357 274.689C255.735 275.917 254.783 276.949 253.608 277.669C252.433 278.388 251.082 278.768 249.704 278.764L249.659 278.761C237.61 277.084 225.387 277.084 213.338 278.761H213.318C212.112 278.766 210.923 278.479 209.851 277.925C208.372 277.122 207.229 275.816 206.632 274.243C206.035 272.67 206.022 270.935 206.596 269.353C206.96 268.324 207.231 267.265 207.405 266.187C196.362 264.915 185.203 265.047 174.194 266.578H174.175C172.969 266.583 171.779 266.296 170.708 265.742C169.228 264.939 168.086 263.632 167.489 262.059C166.891 260.486 166.879 258.752 167.453 257.17C168.755 253.808 168.808 250.091 167.603 246.693C167.035 245.099 167.035 243.359 167.603 241.766C159.303 241.343 150.982 241.707 142.751 242.853H142.732C141.525 242.857 140.336 242.57 139.264 242.017C137.785 241.214 136.643 239.907 136.045 238.334C135.448 236.761 135.435 235.026 136.009 233.445C137.311 230.082 137.365 226.365 136.16 222.967C135.78 221.902 135.652 220.764 135.784 219.641C135.917 218.518 136.307 217.441 136.924 216.493C137.498 215.599 138.274 214.851 139.19 214.31C140.105 213.769 141.135 213.449 142.196 213.376C142.365 213.365 142.535 213.359 142.707 213.359C146.924 214.096 151.181 214.577 155.457 214.798C154.132 213.928 153.139 212.638 152.637 211.135C152.136 209.631 152.156 208.003 152.694 206.513C153.995 203.151 154.049 199.434 152.844 196.036C152.464 194.971 152.336 193.832 152.468 192.71C152.601 191.587 152.991 190.509 153.608 189.562C153.662 189.479 153.725 189.406 153.782 189.326C150.74 189.536 147.704 189.851 144.676 190.272H144.657C143.45 190.277 142.261 189.99 141.189 189.436C139.71 188.633 138.568 187.326 137.97 185.753C137.373 184.18 137.36 182.446 137.935 180.864C139.236 177.502 139.29 173.785 138.085 170.387C137.705 169.322 137.577 168.183 137.709 167.06C137.842 165.938 138.232 164.86 138.849 163.913C139.423 163.018 140.199 162.27 141.115 161.729C142.03 161.188 143.06 160.868 144.121 160.796C144.29 160.785 144.46 160.779 144.632 160.779C149.702 161.666 154.831 162.182 159.977 162.322C159.33 161.39 158.914 160.318 158.763 159.194C158.613 158.069 158.732 156.925 159.111 155.856C160.412 152.494 160.466 148.777 159.261 145.379C158.881 144.314 158.753 143.176 158.885 142.053C159.018 140.93 159.408 139.853 160.025 138.905C160.599 138.01 161.375 137.263 162.291 136.721C163.206 136.18 164.236 135.86 165.297 135.788C165.466 135.777 165.636 135.771 165.808 135.771C170.099 136.521 174.432 137.005 178.783 137.222C178.321 136.348 178.044 135.387 177.972 134.4C177.899 133.413 178.032 132.422 178.362 131.49C179.663 128.127 179.717 124.41 178.512 121.012C178.132 119.947 178.004 118.809 178.136 117.686C178.269 116.563 178.659 115.486 179.276 114.538C179.85 113.644 180.626 112.896 181.542 112.355C182.457 111.813 183.487 111.494 184.548 111.421C184.717 111.41 184.887 111.404 185.059 111.404C190.108 112.287 195.215 112.803 200.339 112.946C199.641 111.299 199.584 109.451 200.179 107.764C201.481 104.402 201.535 100.685 200.33 97.2869C199.95 96.2218 199.821 95.0835 199.954 93.9606C200.086 92.8378 200.476 91.7606 201.094 90.8129C201.668 89.9184 202.444 89.1705 203.36 88.6293C204.275 88.0881 205.305 87.7685 206.366 87.696C206.535 87.6848 206.705 87.6788 206.876 87.6788C218.902 89.7939 231.205 89.7955 243.231 87.6835H243.246C244.175 87.8746 245.132 87.8746 246.06 87.6835H246.075C258.101 89.7955 270.404 89.7939 282.43 87.6788C282.602 87.6788 282.772 87.6848 282.941 87.696C284.002 87.7685 285.032 88.0881 285.947 88.6293C286.863 89.1705 287.639 89.9184 288.213 90.8129C288.83 91.7606 289.22 92.8378 289.353 93.9606C289.485 95.0835 289.357 96.2218 288.977 97.2869C287.772 100.685 287.825 104.402 289.127 107.764C289.722 109.451 289.666 111.299 288.968 112.946C294.092 112.803 299.199 112.287 304.248 111.404C304.42 111.404 304.589 111.41 304.759 111.421C305.82 111.494 306.849 111.813 307.765 112.355C308.68 112.896 309.456 113.644 310.031 114.538C310.648 115.486 311.038 116.563 311.17 117.686C311.303 118.809 311.174 119.947 310.795 121.012C309.59 124.41 309.643 128.127 310.945 131.49C311.275 132.422 311.407 133.413 311.335 134.4C311.262 135.387 310.986 136.348 310.524 137.222C314.875 137.005 319.208 136.521 323.499 135.771C323.671 135.771 323.84 135.777 324.01 135.788C325.071 135.86 326.1 136.18 327.016 136.721C327.931 137.263 328.707 138.01 329.282 138.905C329.899 139.853 330.289 140.93 330.421 142.053C330.554 143.176 330.425 144.314 330.046 145.379C328.841 148.777 328.894 152.494 330.196 155.856C330.576 156.928 330.695 158.075 330.543 159.202C330.39 160.329 329.971 161.403 329.32 162.336C329.893 162.768 330.4 163.282 330.825 163.86C331.413 164.701 331.807 165.662 331.98 166.674C332.152 167.686 332.098 168.723 331.822 169.711C330.895 173.318 330.939 177.213 331.958 181.618C332.327 183.159 332.142 184.781 331.436 186.199C331.177 186.704 330.862 187.179 330.497 187.613C333.501 187.349 336.497 186.956 339.486 186.432H339.501C340.686 186.428 341.856 186.705 342.913 187.24C343.97 187.775 344.886 188.552 345.584 189.509C346.172 190.35 346.566 191.311 346.739 192.323C346.911 193.335 346.857 194.372 346.581 195.36C345.654 198.967 345.698 202.862 346.717 207.267C347.086 208.808 346.901 210.43 346.195 211.849V211.849Z" fill="white"/>
<path d="M439.53 49.2239H42.2291C41.8161 49.2148 41.4231 49.0445 41.1342 48.7494C40.8453 48.4543 40.6836 48.0579 40.6836 47.6451C40.6836 47.2324 40.8453 46.836 41.1342 46.5409C41.4231 46.2458 41.8161 46.0755 42.2291 46.0663H439.53C439.943 46.0755 440.336 46.2458 440.625 46.5409C440.914 46.836 441.076 47.2324 441.076 47.6451C441.076 48.0579 440.914 48.4543 440.625 48.7494C440.336 49.0445 439.943 49.2148 439.53 49.2239V49.2239Z" fill="#E6E6E6"/>
<path d="M69.2739 38.0053C74.3877 38.0053 78.5332 33.7705 78.5332 28.5467C78.5332 23.3228 74.3877 19.088 69.2739 19.088C64.1602 19.088 60.0146 23.3228 60.0146 28.5467C60.0146 33.7705 64.1602 38.0053 69.2739 38.0053Z" fill="#3F3D56"/>
<path d="M101.261 38.0053C106.375 38.0053 110.52 33.7705 110.52 28.5467C110.52 23.3228 106.375 19.088 101.261 19.088C96.147 19.088 92.0015 23.3228 92.0015 28.5467C92.0015 33.7705 96.147 38.0053 101.261 38.0053Z" fill="#3F3D56"/>
<path d="M133.248 38.0053C138.361 38.0053 142.507 33.7705 142.507 28.5467C142.507 23.3228 138.361 19.088 133.248 19.088C128.134 19.088 123.988 23.3228 123.988 28.5467C123.988 33.7705 128.134 38.0053 133.248 38.0053Z" fill="#3F3D56"/>
<path d="M420.269 21.4269H397.551C397.102 21.4372 396.674 21.6227 396.36 21.9438C396.046 22.265 395.87 22.6961 395.87 23.1452C395.87 23.5942 396.046 24.0254 396.36 24.3465C396.674 24.6676 397.102 24.8531 397.551 24.8634H420.269C420.721 24.8572 421.153 24.6735 421.47 24.3519C421.787 24.0303 421.965 23.5968 421.965 23.1452C421.965 22.6935 421.787 22.26 421.47 21.9384C421.153 21.6169 420.721 21.4331 420.269 21.4269H420.269Z" fill="#3F3D56"/>
<path d="M420.27 27.8799H397.551C397.102 27.8901 396.674 28.0756 396.36 28.3967C396.046 28.7178 395.87 29.149 395.87 29.5981C395.87 30.0471 396.046 30.4783 396.36 30.7995C396.674 31.1206 397.102 31.3061 397.551 31.3162H420.27C420.722 31.3102 421.153 31.1265 421.471 30.805C421.788 30.4834 421.966 30.0498 421.966 29.5981C421.966 29.1463 421.788 28.7128 421.471 28.3912C421.153 28.0696 420.722 27.886 420.27 27.8799H420.27Z" fill="#3F3D56"/>
<path d="M420.269 34.3328H397.551C397.102 34.3431 396.674 34.5286 396.36 34.8497C396.046 35.1708 395.87 35.602 395.87 36.051C395.87 36.5 396.046 36.9312 396.36 37.2523C396.674 37.5735 397.102 37.759 397.551 37.7692H420.269C420.721 37.7631 421.153 37.5793 421.47 37.2578C421.787 36.9362 421.965 36.5027 421.965 36.051C421.965 35.5994 421.787 35.1658 421.47 34.8443C421.153 34.5227 420.721 34.339 420.269 34.3328H420.269Z" fill="#3F3D56"/>
<path d="M481.236 427.88L0.764292 428.077C0.562034 428.077 0.368265 427.996 0.225454 427.853C0.0826424 427.71 0.00244141 427.516 0.00244141 427.314C0.00244141 427.112 0.0826424 426.918 0.225454 426.775C0.368265 426.632 0.562034 426.551 0.764292 426.55L481.236 426.353C481.438 426.354 481.632 426.435 481.775 426.578C481.918 426.721 481.998 426.915 481.998 427.117C481.998 427.319 481.918 427.513 481.775 427.656C481.632 427.799 481.438 427.88 481.236 427.88V427.88Z" fill="#CACACA"/>
</svg>
