<svg width="58" height="58" viewBox="0 0 58 58" fill="none" xmlns="http://www.w3.org/2000/svg">
<path d="M55.5 0H2.3125C1.0334 0 0 1.0334 0 2.3125V55.5C0 56.7791 1.0334 57.8125 2.3125 57.8125H55.5C56.7791 57.8125 57.8125 56.7791 57.8125 55.5V2.3125C57.8125 1.0334 56.7791 0 55.5 0ZM53.1875 53.1875H39.8834V35.4246H47.399L48.5264 26.7021H39.8834V21.1305C39.8834 18.6012 40.5844 16.8813 44.2049 16.8813H48.8227V9.07656C48.0205 8.96816 45.2816 8.72969 42.0875 8.72969C35.4246 8.72969 30.8646 12.7982 30.8646 20.2633V26.6949H23.3346V35.4174H30.8719V53.1875H4.625V4.625H53.1875V53.1875Z" fill="white"/>
</svg>
