<svg width="74" height="71" viewBox="0 0 74 71" fill="none" xmlns="http://www.w3.org/2000/svg">
<path fill-rule="evenodd" clip-rule="evenodd" d="M37 3.22208C18.3304 3.22208 3.21592 18.2595 3.21592 36.778C3.21592 50.3755 11.3652 62.0767 23.0942 67.34C24.3213 67.8919 25.5208 67.673 26.4581 66.97C26.9765 66.5663 27.3943 66.0481 27.6789 65.4559C27.9635 64.8637 28.1071 64.2137 28.0984 63.5568V61.7992L23.9143 61.2319C23.8833 61.2277 23.8525 61.2226 23.8218 61.2165C21.5155 60.7663 19.9584 59.9554 18.8176 58.7868C17.8587 57.8032 17.2728 56.6254 16.7764 55.6264L16.6038 55.278C16.1449 54.321 15.6439 53.3848 15.1022 52.4722C14.6859 51.8123 14.3622 51.4732 14.0415 51.2604C13.2275 50.7208 12.4443 49.8051 12.4443 48.6612C12.4416 48.3319 12.512 48.0062 12.6507 47.7075C12.7893 47.4089 12.9927 47.1448 13.246 46.9345C13.7241 46.556 14.3199 46.3574 14.9295 46.3733C15.614 46.3733 16.2584 46.583 16.7949 46.8235C17.3438 47.0702 17.8895 47.397 18.3982 47.7362C19.6377 48.5625 20.8587 49.5399 21.8917 50.7455C22.9677 51.9973 23.7293 52.7928 24.8763 52.9562C25.8198 53.0919 26.7818 53.095 27.5311 53.0611C27.6352 52.4679 27.8069 51.8885 28.0429 51.3344C27.1278 51.1209 26.2251 50.8574 25.3388 50.5451C23.3223 49.8297 21.0746 48.7167 19.5637 47.0301C17.9049 45.1739 16.8782 43.5182 16.3047 41.5818C15.7466 39.6948 15.6541 37.6506 15.6541 35.1346C15.6541 31.2804 17.3222 28.0337 18.574 26.3101C18.093 24.8011 17.7474 23.2523 17.5411 21.682C17.4045 20.6917 17.4055 19.6873 17.5442 18.6973C17.6983 17.7939 18.0837 16.6839 19.0982 16.0148C20.0756 15.3642 21.2226 15.392 22.1167 15.5585C23.0448 15.7343 24.0099 16.1197 24.8979 16.5606C26.344 17.2759 27.7808 18.2318 28.8569 19.0427C30.7131 18.4969 33.9968 17.7939 36.9661 17.7292H37.0339C40.0062 17.7939 43.142 18.4969 44.9519 19.0396C46.0311 18.2318 47.4648 17.2728 48.9078 16.5606C49.7958 16.1197 50.7578 15.7343 51.689 15.5585C52.5832 15.392 53.7302 15.3642 54.7107 16.0117C55.722 16.6839 56.1105 17.7939 56.2616 18.6973C56.4188 19.6378 56.3818 20.6892 56.2616 21.682C56.0562 23.2522 55.7116 24.801 55.2318 26.3101C56.4836 28.0367 58.1517 31.2835 58.1517 35.1346C58.1517 37.6506 58.0592 39.6948 57.5042 41.5787C56.9276 43.5212 55.9008 45.1739 54.242 47.0301C52.7312 48.7167 50.4834 49.8297 48.4669 50.5451C47.3965 50.9213 46.3027 51.2272 45.1924 51.4608C45.5717 52.6078 45.7073 53.5359 45.7073 54.0693V63.5968C45.7073 65.046 46.3826 66.2824 47.3415 67.0039C48.2727 67.71 49.469 67.9289 50.6962 67.3924C62.5362 62.1754 70.781 50.4433 70.781 36.7749C70.781 18.2595 55.6727 3.22208 37 3.22208ZM29.2177 56.1475C28.416 56.2616 29.2146 56.1475 29.2146 56.1475H29.2053L29.1807 56.1537L29.0913 56.166C28.6333 56.2198 28.1736 56.2579 27.713 56.2801C26.8435 56.3202 25.6502 56.3232 24.4262 56.1475C21.9872 55.8022 20.5042 54.0755 19.5452 52.9532L19.4527 52.8483C19.1392 52.4846 18.8024 52.1417 18.4445 51.8216C18.7621 52.4074 19.092 53.0611 19.4466 53.7641L19.4774 53.8258L19.6347 54.1464C20.1742 55.2194 20.5288 55.9347 21.1178 56.5329C21.6912 57.1187 22.5854 57.6861 24.3922 58.0438L29.9237 58.793C30.3101 58.8453 30.6643 59.036 30.9206 59.3298C31.177 59.6235 31.3179 60.0003 31.3174 60.3902V63.5568C31.3174 66.0234 30.1612 68.2218 28.3882 69.5538C27.4574 70.2651 26.3501 70.7087 25.1857 70.837C24.0213 70.9652 22.844 70.7731 21.7807 70.2815C8.94783 64.5249 0 51.7075 0 36.778C0 16.4527 16.5791 0 37 0C57.4209 0 74 16.4527 74 36.778C74 51.7846 64.9381 64.6359 51.9943 70.3432C50.9301 70.8255 49.7548 71.0094 48.5942 70.8752C47.4336 70.7411 46.3312 70.2939 45.4052 69.5816C44.4895 68.8766 43.7496 67.9691 43.2435 66.9302C42.7374 65.8913 42.479 64.7493 42.4883 63.5938V54.0662C42.4883 53.8504 42.3372 52.6047 41.4955 50.9305C41.3793 50.6983 41.3208 50.4416 41.3249 50.182C41.3289 49.9225 41.3955 49.6677 41.5189 49.4393C41.6423 49.2109 41.819 49.0156 42.0339 48.87C42.2488 48.7243 42.4956 48.6326 42.7535 48.6026C43.8111 48.4854 45.5933 48.1432 47.3908 47.5049C49.2223 46.8574 50.8657 45.9694 51.8432 44.8779C53.2954 43.2561 54.02 42.0104 54.4177 40.663C54.8309 39.2662 54.9357 37.6413 54.9357 35.1346C54.9357 31.6165 53.0857 28.6596 52.2347 27.7068C52.0416 27.4915 51.9099 27.2282 51.8535 26.9445C51.797 26.6608 51.818 26.3671 51.9141 26.0942C52.3457 24.8794 52.8699 22.9893 53.0703 21.3027C53.169 20.4548 53.1752 19.7457 53.0888 19.2338C53.0695 19.0467 53.0129 18.8653 52.9223 18.7004C52.7101 18.6637 52.4924 18.6731 52.2841 18.7282C51.7599 18.8268 51.0908 19.0735 50.3323 19.4497C48.8215 20.1958 47.249 21.2997 46.2747 22.089C46.0598 22.2633 45.8035 22.3791 45.5306 22.425C45.2578 22.4709 44.9777 22.4455 44.7176 22.3511C42.2211 21.5345 39.6243 21.0645 37 20.9543C33.8951 21.0283 30.3123 21.9102 29.0882 22.3511C28.8281 22.4455 28.548 22.4709 28.2751 22.425C28.0023 22.3791 27.7459 22.2633 27.5311 22.089C26.271 21.0746 24.9116 20.1903 23.4734 19.4497C22.8559 19.1254 22.1987 18.8828 21.5186 18.7282C21.3113 18.6736 21.0947 18.6641 20.8834 18.7004C20.7928 18.8653 20.7362 19.0467 20.7169 19.2338C20.6306 19.7457 20.6367 20.4548 20.7354 21.3027C20.9358 22.9893 21.4631 24.8794 21.8917 26.0942C22.0859 26.6493 21.9657 27.2659 21.571 27.7068C20.72 28.6596 18.87 31.6165 18.87 35.1346C18.87 37.6383 18.9748 39.2662 19.388 40.663C19.7888 42.0104 20.5103 43.253 21.9595 44.8779C22.94 45.9694 24.5803 46.8574 26.4149 47.5049C27.9158 48.0361 29.4695 48.4041 31.0492 48.6026C31.3742 48.6375 31.6808 48.7705 31.9284 48.9839C32.176 49.1973 32.3527 49.4811 32.435 49.7974C32.5173 50.1137 32.5014 50.4476 32.3894 50.7547C32.2773 51.0618 32.0744 51.3274 31.8077 51.5163C31.2989 51.8802 30.9628 52.5338 30.7747 53.2893C30.6776 53.6782 30.6198 54.0759 30.6021 54.4763V54.5349C30.606 54.9259 30.4678 55.3049 30.2131 55.6015C29.9585 55.8982 29.6047 56.0922 29.2177 56.1475Z" fill="white"/>
</svg>
