<svg width="68" height="68" viewBox="0 0 68 68" fill="none" xmlns="http://www.w3.org/2000/svg">
<path fill-rule="evenodd" clip-rule="evenodd" d="M19.9337 0.2035C23.5505 0.0369999 24.7037 0 33.9167 0C43.1297 0 44.2828 0.0400833 47.8965 0.2035C51.5102 0.366917 53.9768 0.9435 56.1352 1.77908C58.3952 2.63317 60.4457 3.96825 62.1415 5.69492C63.8682 7.38767 65.2002 9.435 66.0512 11.6982C66.8898 13.8565 67.4633 16.3232 67.6298 19.9307C67.7963 23.5536 67.8333 24.7067 67.8333 33.9167C67.8333 43.1297 67.7932 44.2828 67.6298 47.8996C67.4664 51.5071 66.8898 53.9737 66.0512 56.1321C65.2001 58.3955 63.8659 60.4463 62.1415 62.1415C60.4457 63.8682 58.3952 65.2002 56.1352 66.0512C53.9768 66.8898 51.5102 67.4633 47.9027 67.6298C44.2828 67.7963 43.1297 67.8333 33.9167 67.8333C24.7037 67.8333 23.5505 67.7932 19.9337 67.6298C16.3262 67.4664 13.8596 66.8898 11.7012 66.0512C9.43784 65.2001 7.38711 63.8659 5.69183 62.1415C3.96634 60.4477 2.63105 58.398 1.77908 56.1352C0.9435 53.9768 0.37 51.5102 0.2035 47.9027C0.0369999 44.2797 0 43.1266 0 33.9167C0 24.7037 0.0400833 23.5505 0.2035 19.9368C0.366917 16.3232 0.9435 13.8565 1.77908 11.6982C2.63231 9.43525 3.96862 7.38555 5.69492 5.69183C7.38779 3.96671 9.43645 2.63145 11.6982 1.77908C13.8565 0.9435 16.3232 0.37 19.9307 0.2035H19.9337ZM47.6221 6.3085C44.0454 6.14508 42.9724 6.11117 33.9167 6.11117C24.8609 6.11117 23.7879 6.14508 20.2112 6.3085C16.9028 6.45958 15.1083 7.0115 13.912 7.47708C12.3302 8.09375 11.1987 8.8245 10.0116 10.0116C8.8863 11.1063 8.0203 12.439 7.47708 13.912C7.0115 15.1083 6.45958 16.9028 6.3085 20.2112C6.14508 23.7879 6.11117 24.8609 6.11117 33.9167C6.11117 42.9724 6.14508 44.0454 6.3085 47.6221C6.45958 50.9305 7.0115 52.725 7.47708 53.9213C8.01975 55.3921 8.88617 56.7272 10.0116 57.8217C11.1062 58.9472 12.4412 59.8136 13.912 60.3562C15.1083 60.8218 16.9028 61.3737 20.2112 61.5248C23.7879 61.6882 24.8578 61.7222 33.9167 61.7222C42.9755 61.7222 44.0454 61.6882 47.6221 61.5248C50.9305 61.3737 52.725 60.8218 53.9213 60.3562C55.5031 59.7396 56.6347 59.0088 57.8217 57.8217C58.9472 56.7272 59.8136 55.3921 60.3562 53.9213C60.8218 52.725 61.3737 50.9305 61.5248 47.6221C61.6882 44.0454 61.7222 42.9724 61.7222 33.9167C61.7222 24.8609 61.6882 23.7879 61.5248 20.2112C61.3737 16.9028 60.8218 15.1083 60.3562 13.912C59.7396 12.3302 59.0088 11.1987 57.8217 10.0116C56.7269 8.88639 55.3942 8.0204 53.9213 7.47708C52.725 7.0115 50.9305 6.45958 47.6221 6.3085ZM29.5846 44.3722C32.0039 45.3794 34.6979 45.5153 37.2064 44.7568C39.7148 43.9983 41.8821 42.3925 43.3381 40.2136C44.7941 38.0347 45.4485 35.4178 45.1895 32.8101C44.9304 30.2023 43.7741 27.7653 41.9179 25.9154C40.7346 24.7329 39.3039 23.8274 37.7287 23.2642C36.1535 22.701 34.473 22.494 32.8082 22.6582C31.1434 22.8224 29.5357 23.3537 28.1009 24.2138C26.6661 25.0739 25.4398 26.2415 24.5103 27.6324C23.5809 29.0233 22.9714 30.603 22.7258 32.2577C22.4801 33.9124 22.6044 35.6011 23.0897 37.202C23.5749 38.8029 24.4091 40.2764 25.5322 41.5162C26.6553 42.7561 28.0393 43.7315 29.5846 44.3722ZM21.5895 21.5895C23.2083 19.9707 25.1301 18.6865 27.2452 17.8104C29.3603 16.9343 31.6273 16.4834 33.9167 16.4834C36.206 16.4834 38.473 16.9343 40.5881 17.8104C42.7032 18.6865 44.625 19.9707 46.2438 21.5895C47.8627 23.2083 49.1468 25.1301 50.0229 27.2452C50.899 29.3603 51.3499 31.6273 51.3499 33.9167C51.3499 36.206 50.899 38.473 50.0229 40.5881C49.1468 42.7032 47.8627 44.625 46.2438 46.2438C42.9745 49.5132 38.5402 51.3499 33.9167 51.3499C29.2931 51.3499 24.8589 49.5132 21.5895 46.2438C18.3201 42.9745 16.4834 38.5402 16.4834 33.9167C16.4834 29.2931 18.3201 24.8589 21.5895 21.5895ZM55.2163 19.0797C55.6175 18.7012 55.9386 18.2462 56.1608 17.7414C56.3829 17.2367 56.5015 16.6925 56.5095 16.141C56.5176 15.5896 56.4149 15.0422 56.2076 14.5312C56.0002 14.0201 55.6925 13.5559 55.3025 13.166C54.9126 12.776 54.4484 12.4683 53.9373 12.2609C53.4263 12.0536 52.8789 11.9509 52.3275 11.959C51.776 11.967 51.2318 12.0856 50.7271 12.3077C50.2223 12.5299 49.7672 12.851 49.3888 13.2522C48.6529 14.0323 48.2499 15.0686 48.2656 16.141C48.2812 17.2134 48.7142 18.2375 49.4726 18.9959C50.2309 19.7543 51.255 20.1873 52.3275 20.2029C53.3999 20.2186 54.4362 19.8156 55.2163 19.0797Z" fill="white"/>
</svg>
