<svg width="58" height="58" viewBox="0 0 58 58" fill="none" xmlns="http://www.w3.org/2000/svg">
<path d="M53.1658 0H4.64668C2.08125 0 0 2.08125 0 4.64668V53.1658C0 55.7313 2.08125 57.8125 4.64668 57.8125H53.1658C55.7313 57.8125 57.8125 55.7313 57.8125 53.1658V4.64668C57.8125 2.08125 55.7313 0 53.1658 0ZM53.1658 53.1875C20.8053 53.1803 4.625 53.173 4.625 53.1658C4.63223 20.8053 4.63945 4.625 4.64668 4.625C37.0072 4.63223 53.1875 4.63945 53.1875 4.64668C53.1803 37.0072 53.173 53.1875 53.1658 53.1875ZM8.5707 21.6725H17.1486V49.2635H8.5707V21.6725ZM12.8633 17.9002C15.6021 17.9002 17.8352 15.6744 17.8352 12.9283C17.8352 12.2754 17.7066 11.6289 17.4567 11.0257C17.2068 10.4225 16.8406 9.87436 16.3789 9.41267C15.9172 8.95099 15.3692 8.58477 14.7659 8.33491C14.1627 8.08505 13.5162 7.95645 12.8633 7.95645C12.2104 7.95645 11.5638 8.08505 10.9606 8.33491C10.3574 8.58477 9.80932 8.95099 9.34764 9.41267C8.88595 9.87436 8.51973 10.4225 8.26987 11.0257C8.02001 11.6289 7.89141 12.2754 7.89141 12.9283C7.88418 15.6744 10.11 17.9002 12.8633 17.9002ZM31.0959 35.6125C31.0959 32.0137 31.7824 28.5305 36.2412 28.5305C40.635 28.5305 40.7 32.6424 40.7 35.8438V49.2635H49.2707V34.1311C49.2707 26.7021 47.6664 20.9859 38.9873 20.9859C34.8176 20.9859 32.0209 23.2768 30.8719 25.4447H30.7562V21.6725H22.5252V49.2635H31.0959V35.6125Z" fill="white"/>
</svg>
