<svg width="65" height="51" viewBox="0 0 65 51" fill="none" xmlns="http://www.w3.org/2000/svg">
<path d="M62.4375 0H2.3125C1.0334 0 0 1.0334 0 2.3125V48.5625C0 49.8416 1.0334 50.875 2.3125 50.875H62.4375C63.7166 50.875 64.75 49.8416 64.75 48.5625V2.3125C64.75 1.0334 63.7166 0 62.4375 0ZM59.5469 8.00703V45.6719H5.20312V8.00703L3.20859 6.45332L6.04863 2.80391L9.1416 5.21035H55.6156L58.7086 2.80391L61.5486 6.45332L59.5469 8.00703ZM55.6156 5.20312L32.375 23.2695L9.13437 5.20312L6.04141 2.79668L3.20137 6.44609L5.1959 7.99981L29.8818 27.1936C30.5918 27.7451 31.4652 28.0445 32.3642 28.0445C33.2632 28.0445 34.1366 27.7451 34.8465 27.1936L59.5469 8.00703L61.5414 6.45332L58.7014 2.80391L55.6156 5.20312Z" fill="white"/>
</svg>
