<svg width="272" height="352" viewBox="0 0 272 352" fill="none" xmlns="http://www.w3.org/2000/svg">
<path d="M42.1983 256.47C24.4957 216.236 32.14 198.131 38.175 194.108L72.3735 103.583L197.097 59.3267L243.365 194.108C238 212.213 225.26 254.056 217.213 276.586C207.155 304.749 162.898 346.994 138.758 346.994C114.618 346.994 64.3266 306.761 42.1983 256.47Z" fill="#ECC07E"/>
<path d="M67.5678 250.434C53.4854 234.341 38.8463 203.496 36.1641 192.096C20.0708 228.306 45.4686 304.627 52.2566 314.808C60.304 326.878 65.5561 355.041 141.999 351.018C203.154 347.799 204.361 328.889 218.443 312.796C230.513 296.703 238.559 270.551 238.559 244.399C238.559 224.043 235.206 210.872 232.524 206.178L204.361 262.504C202.697 264.668 200.471 267.467 197.918 270.551C190.181 279.897 179.434 291.863 172.174 296.703C160.104 304.749 113.836 300.726 99.7541 290.668C97.0566 288.741 94.2283 285.93 91.413 282.621C82.471 272.112 74.6091 258.481 67.5678 250.434Z" fill="black"/>
<path d="M170.622 106.632H118C127.036 100.253 145.427 87.8154 146.703 89.0911C147.979 90.3668 163.712 101.316 170.622 106.632Z" fill="#2F2E41"/>
<path d="M85.6718 298.715L91.7067 268.54C101.765 260.493 129.928 252.446 146.022 252.446C162.115 252.446 184.243 264.516 188.267 272.563C191.485 279 189.608 292.68 188.267 298.715C188.267 293.35 186.657 281.414 180.22 276.586C172.173 270.551 162.115 264.516 146.022 264.516C129.928 264.516 105.788 268.54 103.777 274.575C102.167 279.403 91.0362 292.68 85.6718 298.715Z" fill="black"/>
<path d="M188.421 139.522C180.375 123.429 151.541 98.6187 140.141 89.231C143.514 84.4123 147.471 78.9188 151.719 73.1376C155.559 67.913 159.637 62.4533 163.739 57.0443C167.998 51.4292 172.282 45.8687 176.351 40.6823C182.474 32.8787 188.112 25.9219 192.445 20.9005C196.475 16.2298 199.377 13.2336 200.491 12.7878C210.55 8.7644 230.666 30.8927 234.689 36.9277C236.81 40.109 251.436 55.3766 261.47 85.478C269.516 109.618 273.32 109.808 269.516 147.84C267.505 167.956 267.505 171.979 261.47 188.073C257.446 202.154 257.446 206.178 253.423 218.248C250.07 228.306 239.967 243.245 237.33 244.399C229.283 169.968 198.48 159.639 188.421 139.522Z" fill="#004369"/>
<path d="M269.516 147.84C267.505 167.956 267.505 171.979 261.47 188.073M269.516 147.84C273.32 109.808 269.516 109.618 261.47 85.478M269.516 147.84C251.814 88.2944 200.03 51.5909 176.351 40.6823M151.719 73.1376C147.471 78.9188 143.514 84.4123 140.141 89.231C151.541 98.6187 180.375 123.429 188.421 139.522C198.48 159.639 229.283 169.968 237.33 244.399C239.967 243.245 250.07 228.306 253.423 218.248M151.719 73.1376C155.559 67.913 159.637 62.4533 163.739 57.0443M151.719 73.1376C180.256 89.321 240.548 141 253.423 218.248M253.423 218.248C257.446 206.178 257.446 202.154 261.47 188.073M163.739 57.0443C167.998 51.4292 172.282 45.8687 176.351 40.6823M163.739 57.0443C192.293 71.8866 251.814 118.872 261.47 188.073M176.351 40.6823C182.474 32.8787 188.112 25.9219 192.445 20.9005M192.445 20.9005C196.475 16.2298 199.377 13.2336 200.491 12.7878C210.55 8.7644 230.666 30.8927 234.689 36.9277C236.81 40.109 251.436 55.3766 261.47 85.478M192.445 20.9005C204.724 26.3331 235.72 46.8541 261.47 85.478" stroke="black" stroke-width="0.5" stroke-linecap="round" stroke-linejoin="round"/>
<g filter="url(#filter0_d_15_290)">
<path d="M17.4297 201.884C25.4763 226.024 26.7755 239.035 34.1516 244.399C38.1749 226.294 75.7679 167.686 93.8728 145.558C108.357 127.855 133.435 101.972 144.164 91.2426C153.552 78.5021 173.132 51.8141 176.351 46.9861C180.374 40.9511 200.491 20.8345 206.526 12.7878C198.479 9.56916 176.351 6.08226 166.293 4.74115C130.083 0.717823 124.048 2.72948 79.7912 20.8344C35.5346 38.9394 17.4297 69.1143 11.3947 95.2659C5.35969 121.418 7.37136 171.709 17.4297 201.884Z" fill="#004369"/>
<path d="M17.4297 201.884C25.4763 226.024 26.7755 239.035 34.1516 244.399C38.1749 226.294 75.7679 167.686 93.8728 145.558C108.357 127.855 133.435 101.972 144.164 91.2426C153.552 78.5021 173.132 51.8141 176.351 46.9861C180.374 40.9511 200.491 20.8345 206.526 12.7878C198.479 9.56916 176.351 6.08226 166.293 4.74115C130.083 0.717823 124.048 2.72948 79.7912 20.8344C35.5346 38.9394 17.4297 69.1143 11.3947 95.2659C5.35969 121.418 7.37136 171.709 17.4297 201.884Z" stroke="black" stroke-width="0.5" stroke-linecap="round" stroke-linejoin="round"/>
</g>
<defs>
<filter id="filter0_d_15_290" x="0.75" y="0.75" width="213.026" height="255.899" filterUnits="userSpaceOnUse" color-interpolation-filters="sRGB">
<feFlood flood-opacity="0" result="BackgroundImageFix"/>
<feColorMatrix in="SourceAlpha" type="matrix" values="0 0 0 0 0 0 0 0 0 0 0 0 0 0 0 0 0 0 127 0" result="hardAlpha"/>
<feOffset dy="5"/>
<feGaussianBlur stdDeviation="3.5"/>
<feColorMatrix type="matrix" values="0 0 0 0 0 0 0 0 0 0 0 0 0 0 0 0 0 0 0.06 0"/>
<feBlend mode="normal" in2="BackgroundImageFix" result="effect1_dropShadow_15_290"/>
<feBlend mode="normal" in="SourceGraphic" in2="effect1_dropShadow_15_290" result="shape"/>
</filter>
</defs>
</svg>