<svg width="74" height="61" viewBox="0 0 74 61" fill="none" xmlns="http://www.w3.org/2000/svg">
<path d="M70.8333 3.03101C70.8333 3.03101 64.6112 6.70634 61.1517 7.7485C59.2947 5.61333 56.8268 4.09997 54.0817 3.41311C51.3366 2.72625 48.4468 2.89902 45.8031 3.90807C43.1594 4.91711 40.8894 6.71374 39.3 9.05496C37.7107 11.3962 36.8787 14.169 36.9167 16.9985V20.0818C31.4981 20.2223 26.1289 19.0206 21.2873 16.5836C16.4456 14.1467 12.2818 10.5501 9.16667 6.11434C9.16667 6.11434 -3.16667 33.8643 24.5833 46.1977C18.2333 50.5081 10.6687 52.6694 3 52.3643C30.75 67.781 64.6667 52.3643 64.6667 16.906C64.6667 16.0488 64.5803 15.1917 64.42 14.3468C67.565 11.245 70.8333 3.03101 70.8333 3.03101Z" stroke="white" stroke-width="4.625" stroke-linecap="round" stroke-linejoin="round"/>
</svg>
