<svg width="37" height="37" viewBox="0 0 37 37" fill="none" xmlns="http://www.w3.org/2000/svg">
<path d="M15.9345 9.42115L10.8268 3.52537C10.238 2.84596 9.1585 2.84898 8.47456 3.53443L4.27429 7.74225C3.02417 8.99388 2.66634 10.8524 3.38954 12.3426C7.71002 21.2882 14.9245 28.5128 23.864 32.8458C25.3527 33.569 27.2097 33.2111 28.4598 31.9595L32.6994 27.7124C33.3863 27.0255 33.3878 25.9399 32.7024 25.3511L26.784 20.2706C26.1649 19.7392 25.2032 19.8086 24.5827 20.4306L22.5233 22.493C22.4179 22.6035 22.2791 22.6764 22.1282 22.7004C21.9774 22.7244 21.8229 22.6982 21.6884 22.6259C18.3222 20.6875 15.5299 17.8915 13.5958 14.5228C13.5234 14.388 13.4972 14.2332 13.5212 14.0822C13.5452 13.9311 13.6181 13.792 13.7287 13.6863L15.782 11.6315C16.4041 11.0064 16.472 10.0402 15.9345 9.41964V9.42115Z" stroke="black" stroke-width="2" stroke-linecap="round" stroke-linejoin="round"/>
</svg>
